<?xml version="1.0" encoding="UTF-8"?>
<svg version="1.1" xmlns="http://www.w3.org/2000/svg" width="602" height="415">
<path d="M0 0 C2.49443252 2.49443252 2.31011539 3.42944367 2.48657227 6.88598633 C2.54325577 7.90497513 2.59993927 8.92396393 2.65834045 9.97383118 C2.71050217 11.0820372 2.76266388 12.19024323 2.81640625 13.33203125 C2.87779282 14.47475998 2.93917938 15.61748871 3.00242615 16.79484558 C3.19794562 20.46699591 3.38059972 24.13965212 3.5625 27.8125 C3.75065464 31.4458893 3.94145302 35.0791292 4.13328552 38.71232605 C4.25179577 40.97399461 4.36773949 43.23579973 4.48060608 45.49775696 C4.82027344 52.18346241 5.29617005 58.84116697 5.90293884 65.50834656 C5.93496902 66.33059219 5.96699921 67.15283783 6 68 C5.67 68.33 5.34 68.66 5 69 C6.24136719 69.32613281 7.48273438 69.65226562 8.76171875 69.98828125 C10.40375399 70.429285 12.04567514 70.87071367 13.6875 71.3125 C14.50412109 71.52583984 15.32074219 71.73917969 16.16210938 71.95898438 C20.53962777 73.14640839 24.22538079 74.37852311 28 77 C28.84820312 76.07960938 29.69640625 75.15921875 30.5703125 74.2109375 C37.38961345 66.84256271 44.29290142 59.59461861 51.46728516 52.56982422 C53.75206665 50.31979225 55.85955254 48.19005362 57.76953125 45.60546875 C58.17558594 45.07566406 58.58164062 44.54585937 59 44 C59.66 44 60.32 44 61 44 C61.37125 43.13375 61.37125 43.13375 61.75 42.25 C63.18299988 39.67060021 64.78424676 37.93878408 67 36 C67.66 36 68.32 36 69 36 C69 35.34 69 34.68 69 34 C70.32 33.67 71.64 33.34 73 33 C72.41353196 36.16434953 71.5072084 37.87728667 69.33203125 40.23046875 C65.88108576 44.09383676 62.77878284 48.15870899 59.6875 52.3125 C59.15060547 53.02728516 58.61371094 53.74207031 58.06054688 54.47851562 C55.29886185 58.09375293 55.29886185 58.09375293 53 62 C52.34 62 51.68 62 51 62 C50.77054688 62.5259375 50.54109375 63.051875 50.3046875 63.59375 C48.56146657 66.80879219 46.36348152 69.62195233 44.125 72.5 C43.69058594 73.06847656 43.25617188 73.63695312 42.80859375 74.22265625 C40.3829727 77.36212373 37.87835261 80.26891194 35 83 C35.7425 83.721875 36.485 84.44375 37.25 85.1875 C42.05102093 90.09763504 49 97.66758869 49 105 C49.67160156 104.97679687 50.34320313 104.95359375 51.03515625 104.9296875 C59.01567026 104.78552338 66.8212063 105.3359998 74.76074219 106.07543945 C81.45914915 106.69706787 88.15957624 107.2548588 94.8671875 107.765625 C95.72576859 107.83138229 96.58434967 107.89713959 97.46894836 107.96488953 C100.95272499 108.23137961 104.43651244 108.49742945 107.92086792 108.7562561 C110.3811329 108.93930585 112.84096644 109.12741726 115.30078125 109.31640625 C116.04870941 109.37052673 116.79663757 109.42464722 117.56723022 109.48040771 C122.77281204 109.88640602 122.77281204 109.88640602 125 111 C125 111.66 125 112.32 125 113 C119.28468389 113.97964528 113.76258665 114.13856729 107.97096252 114.12025452 C106.97676188 114.12110894 105.98256123 114.12196337 104.9582333 114.12284368 C101.63562989 114.12448734 98.31307726 114.11899535 94.99047852 114.11352539 C92.60523988 114.11324325 90.22000116 114.11340177 87.83476257 114.1139679 C82.03575108 114.11422505 76.23675615 114.10989358 70.43774844 114.10353024 C63.6878436 114.09637168 56.93794108 114.0948842 50.18803298 114.09374207 C38.15147487 114.09155548 26.11492356 114.08490607 14.07836914 114.07543945 C2.38859084 114.06625515 -9.30118561 114.0591793 -20.9909668 114.05493164 C-21.71198066 114.05466892 -22.43299453 114.05440619 -23.1758573 114.05413551 C-26.79310809 114.05283044 -30.41035889 114.05156674 -34.02760971 114.05032361 C-64.01841123 114.03996325 -94.00920482 114.02228111 -124 114 C-124.33 113.01 -124.66 112.02 -125 111 C-116.16575539 109.62386918 -107.38753928 108.86027099 -98.45874023 108.42727661 C-93.84816427 108.20182262 -89.24046248 107.93499924 -84.63279724 107.65738106 C-81.20883772 107.45462297 -77.7872586 107.27918556 -74.359375 107.15795898 C-59.91979486 107.38426557 -59.91979486 107.38426557 -47.04833984 102.47503662 C-44.63152573 99.46362717 -43.37514276 96.42915145 -42.29882812 92.75073242 C-40.67711951 88.06759154 -38.66454884 86.25055556 -35 83 C-36.66607286 80.87453205 -38.33271786 78.74951916 -40 76.625 C-40.50257324 75.98449707 -41.00514648 75.34399414 -41.52294922 74.68408203 C-44.36804278 71.06264162 -47.23231899 67.4586453 -50.125 63.875 C-54.55749884 58.35493959 -58.77699356 52.68065166 -63 47 C-63.87205078 45.89785156 -63.87205078 45.89785156 -64.76171875 44.7734375 C-66 43 -66 43 -66 41 C-66.99 40.67 -67.98 40.34 -69 40 C-71.32265612 37.41927097 -72 36.54823932 -72 33 C-68.21388773 33.54087318 -66.44599233 35.11722332 -64 38 C-64 38.66 -64 39.32 -64 40 C-63.34 40 -62.68 40 -62 40 C-60.30859375 41.64453125 -60.30859375 41.64453125 -58.4375 43.8125 C-57.50744141 44.87404297 -57.50744141 44.87404297 -56.55859375 45.95703125 C-55 48 -55 48 -54 51 C-52.6846659 51.70151152 -51.34882408 52.36525925 -50 53 C-48.25 54.5 -48.25 54.5 -47 56 C-47 56.66 -47 57.32 -47 58 C-45.68 58.66 -44.36 59.32 -43 60 C-43 60.66 -43 61.32 -43 62 C-41.515 62.495 -41.515 62.495 -40 63 C-37.8125 64.9375 -37.8125 64.9375 -36 67 C-36 67.66 -36 68.32 -36 69 C-34.515 69.495 -34.515 69.495 -33 70 C-29 74.34285714 -29 74.34285714 -29 78 C-28.44570313 77.71125 -27.89140625 77.4225 -27.3203125 77.125 C-26.59585938 76.75375 -25.87140625 76.3825 -25.125 76 C-24.40570313 75.62875 -23.68640625 75.2575 -22.9453125 74.875 C-21 74 -21 74 -19 74 C-19.38671875 73.07960938 -19.7734375 72.15921875 -20.171875 71.2109375 C-23.32005538 63.59835972 -25.98259098 56.10858566 -28.04296875 48.12109375 C-28.92514833 44.92007976 -28.92514833 44.92007976 -30.61328125 41.84765625 C-32 39 -32 39 -32 35 C-29 36 -29 36 -27.45703125 38.52734375 C-26.91433594 39.65269531 -26.37164062 40.77804688 -25.8125 41.9375 C-25.51714355 42.54634033 -25.22178711 43.15518066 -24.91748047 43.7824707 C-15.60887215 63.17338355 -15.60887215 63.17338355 -13 71 C-8.545 70.01 -8.545 70.01 -4 69 C-4.18030762 68.13358887 -4.36061523 67.26717773 -4.54638672 66.37451172 C-5.40812711 60.27367958 -4.68060921 54.1242145 -4.2578125 48.0078125 C-4.16859702 46.6526106 -4.07989057 45.2973751 -3.9916687 43.94210815 C-3.80613661 41.11602677 -3.6156579 38.29033754 -3.42138672 35.46484375 C-3.17218342 31.83697163 -2.93366245 28.20849279 -2.69854927 24.5796833 C-2.51682352 21.78801354 -2.33044926 18.99667004 -2.14254379 16.20541 C-2.0091413 14.21513725 -1.8789593 12.2246495 -1.74880981 10.23416138 C-1.66557465 9.03556488 -1.58233948 7.83696838 -1.49658203 6.60205078 C-1.42472687 5.54172638 -1.3528717 4.48140198 -1.27883911 3.38894653 C-1 1 -1 1 0 0 Z " fill="#DD352E" transform="translate(305,87)"/>
<path d="M0 0 C0.70511719 0.13535156 1.41023438 0.27070313 2.13671875 0.41015625 C2.75160156 0.60480469 3.36648438 0.79945313 4 1 C4.495 2.485 4.495 2.485 5 4 C6.155 4.33 7.31 4.66 8.5 5 C9.655 5.33 10.81 5.66 12 6 C12.495 7.485 12.495 7.485 13 9 C13.639375 9.28875 14.27875 9.5775 14.9375 9.875 C17.7174915 11.391359 17.89210364 13.11946947 19 16 C20.485 16.495 20.485 16.495 22 17 C23.66978819 19.95424065 24.9271497 22.7814491 26 26 C26.66 26.33 27.32 26.66 28 27 C28 28.98 28 30.96 28 33 C29.8253125 33.0309375 29.8253125 33.0309375 31.6875 33.0625 C32.37199219 33.07410156 33.05648437 33.08570313 33.76171875 33.09765625 C36.0270751 33.06376817 36.0270751 33.06376817 38.29614258 32.49072266 C41.12974511 31.97645258 43.62477409 31.94537934 46.5 32.05078125 C47.54663818 32.08872803 48.59327637 32.1266748 49.67163086 32.16577148 C50.76999268 32.21419189 51.86835449 32.2626123 53 32.3125 C54.11963135 32.36027588 55.2392627 32.40805176 56.39282227 32.45727539 C77.45957991 33.45957991 77.45957991 33.45957991 81 37 C63.20650369 37.02335211 45.41301134 37.04099056 27.61950302 37.05181217 C19.35782102 37.0569702 11.09614854 37.06400355 2.83447266 37.07543945 C-4.36572868 37.08540131 -11.56592313 37.09185702 -18.76613116 37.09408849 C-22.57917557 37.09539304 -26.39220025 37.09846278 -30.20523834 37.10573006 C-33.79369009 37.11251393 -37.38211397 37.11461212 -40.97057152 37.11310768 C-42.91642487 37.11351425 -44.86227518 37.11889714 -46.80812073 37.12442017 C-48.54547737 37.12235817 -48.54547737 37.12235817 -50.31793213 37.12025452 C-51.82782904 37.12163721 -51.82782904 37.12163721 -53.36822891 37.12304783 C-55.73858376 37.01222245 -57.73503985 36.67814255 -60 36 C-59.26474664 31.76531291 -57.15539387 29.72416905 -54.27734375 26.68359375 C-52.69778653 24.95388867 -52.69778653 24.95388867 -53 22 C-53.66 21.34 -54.32 20.68 -55 20 C-54.48050781 19.55269531 -53.96101563 19.10539062 -53.42578125 18.64453125 C-49.47472977 15.21931287 -45.64783144 11.75205519 -42 8 C-41.484375 7.505 -40.96875 7.01 -40.4375 6.5 C-38.84355073 4.93888182 -38.84355073 4.93888182 -37.4375 2.5 C-28.98441381 -6.16983199 -10.05830059 -4.93053951 0 0 Z " fill="#EF3512" transform="translate(324,162)"/>
<path d="M0 0 C4.0018325 -0.04978833 8.00354265 -0.08590164 12.00561523 -0.10986328 C13.36437118 -0.11986243 14.72310594 -0.13346624 16.08178711 -0.15087891 C18.04531296 -0.17539594 20.00900201 -0.18546962 21.97265625 -0.1953125 C23.15093994 -0.20578613 24.32922363 -0.21625977 25.54321289 -0.22705078 C32.54079754 0.23256881 37.84539402 2.45878963 43.25 6.8125 C45.46049805 9.57562256 45.71432013 11.50042155 46 15 C46.0825 15.804375 46.165 16.60875 46.25 17.4375 C45.90052219 21.01964752 44.59997793 23.80004413 43 27 C42.01 27.495 42.01 27.495 41 28 C41 28.66 41 29.32 41 30 C42.65848177 31.01351664 44.32665961 32.01120795 46 33 C48.73263113 35.20128618 49.83953156 36.39824337 50.75 39.8125 C51.44444444 48.66666667 51.44444444 48.66666667 50 53 C49.34 53 48.68 53 48 53 C47.7625708 53.76739502 47.5251416 54.53479004 47.28051758 55.32543945 C45.30550478 59.45056151 42.62607578 60.32812267 38.52099609 62.04052734 C31.40468398 63.97972486 24.12895156 63.50939851 16.8125 63.3125 C15.17646668 63.28736518 13.54039582 63.26456123 11.90429688 63.24414062 C7.93525417 63.18960142 3.96805208 63.10362531 0 63 C-0.495 61.515 -0.495 61.515 -1 60 C-0.01 60 0.98 60 2 60 C2.83013761 57.07734866 3.1504647 54.42086769 3.22119141 51.38671875 C3.24436432 50.47897705 3.26753723 49.57123535 3.29141235 48.63598633 C3.3112619 47.66298584 3.33111145 46.68998535 3.3515625 45.6875 C3.38629166 44.17869263 3.38629166 44.17869263 3.42172241 42.6394043 C3.46929749 40.51453543 3.51453923 38.38961323 3.55761719 36.26464844 C3.62474905 33.01215818 3.70252739 29.76004045 3.78125 26.5078125 C3.82616503 24.44272224 3.87045683 22.37761832 3.9140625 20.3125 C3.93796051 19.33949951 3.96185852 18.36649902 3.98648071 17.36401367 C4.0033493 16.45627197 4.0202179 15.54853027 4.03759766 14.61328125 C4.05456696 13.81704346 4.07153625 13.02080566 4.08901978 12.20043945 C3.99838755 9.96014258 3.72940042 8.11995431 3 6 C1.02329393 4.24577228 1.02329393 4.24577228 -1 3 C-0.67 2.01 -0.34 1.02 0 0 Z M17 6 C16.8990688 8.40750601 16.86130929 10.78021762 16.875 13.1875 C16.87242187 14.50105469 16.86984375 15.81460938 16.8671875 17.16796875 C16.98447559 20.55207509 17.35000756 23.68297509 18 27 C19.4370809 27.05422947 20.87475462 27.09289723 22.3125 27.125 C23.11300781 27.14820313 23.91351563 27.17140625 24.73828125 27.1953125 C27.28388576 27.15817322 27.28388576 27.15817322 30 25 C30 24.34 30 23.68 30 23 C30.66 23 31.32 23 32 23 C33.14753683 16.44364834 33.14753683 16.44364834 31.875 10.0625 C28.54231243 6.39654367 26.251309 5.0834206 21.25 4.75 C18.14913969 4.63392985 18.14913969 4.63392985 17 6 Z M19 32 C15.94657262 40.39692529 16.41823655 49.30030104 18 58 C24.60769737 58.60931636 28.94367779 58.11218369 34.50390625 54.38671875 C36.7031429 52.3482618 36.98246695 50.44533957 37.09765625 47.51953125 C37.08605469 46.62621094 37.07445312 45.73289062 37.0625 44.8125 C37.05347656 43.91144531 37.04445313 43.01039063 37.03515625 42.08203125 C37.02355469 41.39496094 37.01195312 40.70789063 37 40 C36.34 40 35.68 40 35 40 C34.67 38.35 34.34 36.7 34 35 C28.89665983 33.094753 24.53657294 31.57410977 19 32 Z " fill="#081735" transform="translate(120,209)"/>
<path d="M0 0 C3.98352168 -0.04987075 7.9669195 -0.08593964 11.95068359 -0.10986328 C13.96328119 -0.12472879 15.97579188 -0.150157 17.98828125 -0.17578125 C24.6832828 -0.20942447 30.61030281 -0.07013149 37 2 C37 2.66 37 3.32 37 4 C37.5775 4.103125 38.155 4.20625 38.75 4.3125 C41.44333219 5.13546261 43.00371406 6.00371406 45 8 C45.25 10.6875 45.25 10.6875 45 13 C45.66 13 46.32 13 47 13 C47.6087031 19.81747469 46.30320503 23.66696813 42 29 C38.71875 32 38.71875 32 36 32 C36.56888837 35.9822186 37.89001415 38.60567493 40 42 C40 42.66 40 43.32 40 44 C40.66 44 41.32 44 42 44 C43.5078125 46.1171875 43.5078125 46.1171875 45.125 48.875 C45.66382813 49.77992188 46.20265625 50.68484375 46.7578125 51.6171875 C48 54 48 54 48 56 C48.78375 56.0825 49.5675 56.165 50.375 56.25 C53 57 53 57 54.3125 59.0625 C54.6528125 60.0215625 54.6528125 60.0215625 55 61 C49.99678102 62.66773966 44.75387621 63.01960123 39.7421875 61.1640625 C34.4664124 58.17512528 31.79502322 54.26754376 29 49 C27.3403027 46.21170853 25.67529986 43.53614266 23.8125 40.875 C22 38 22 38 22 35 C20.35 35 18.7 35 17 35 C16.85494825 38.43705705 16.76601986 41.87333033 16.6875 45.3125 C16.64560547 46.28896484 16.60371094 47.26542969 16.56054688 48.27148438 C16.51473926 50.93748739 16.51011229 53.37779634 17 56 C19.3593351 58.12744839 19.3593351 58.12744839 22 59 C22 59.66 22 60.32 22 61 C16.96145894 61.83211276 12.1874338 62.1078534 7.0625 62.0625 C6.37865234 62.05798828 5.69480469 62.05347656 4.99023438 62.04882812 C3.32678396 62.0371956 1.6633795 62.01926694 0 62 C0.50603992 59.83125748 0.99983813 58.00032373 2 56 C2.66 56 3.32 56 4 56 C4 38.84 4 21.68 4 4 C2.35 3.67 0.7 3.34 -1 3 C-0.67 2.01 -0.34 1.02 0 0 Z M17 5 C17 12.92 17 20.84 17 29 C23.18130824 30.03021804 24.82588319 30.12399505 30 27 C32.7280836 22.59986516 33.7396366 18.34827277 33.53515625 13.15625 C32.70921791 9.82838166 30.93979086 8.20279628 28.41015625 5.99609375 C25.04837577 4.42706771 25.04837577 4.42706771 17 5 Z " fill="#0E1E3C" transform="translate(188,210)"/>
<path d="M0 0 C6.93 0 13.86 0 21 0 C21 1.32 21 2.64 21 4 C19.02 4.99 19.02 4.99 17 6 C16.67 12.6 16.34 19.2 16 26 C23.59 26 31.18 26 39 26 C39 18.74 39 11.48 39 4 C37.68 3.67 36.36 3.34 35 3 C35 2.34 35 1.68 35 1 C37.40059817 -0.20029908 38.89360649 -0.11459743 41.5703125 -0.09765625 C42.46621094 -0.09443359 43.36210937 -0.09121094 44.28515625 -0.08789062 C45.69087891 -0.07532227 45.69087891 -0.07532227 47.125 -0.0625 C48.06988281 -0.05798828 49.01476562 -0.05347656 49.98828125 -0.04882812 C52.32558387 -0.03702357 54.66276061 -0.02055759 57 0 C57 1.32 57 2.64 57 4 C56.01 4 55.02 4 54 4 C53.19419609 10.8204668 52.86248642 17.51794187 52.90234375 24.3828125 C52.9037587 25.32309296 52.90517365 26.26337341 52.90663147 27.23214722 C52.91216992 30.19646568 52.92471038 33.16070488 52.9375 36.125 C52.94252297 38.15104057 52.94708447 40.17708233 52.95117188 42.203125 C52.96211908 47.13544659 52.97934019 52.06770992 53 57 C54.65 57.66 56.3 58.32 58 59 C58 59.66 58 60.32 58 61 C55.27023085 61.90992305 53.64911026 62.12844593 50.83984375 62.1328125 C49.6497168 62.13474609 49.6497168 62.13474609 48.43554688 62.13671875 C47.19901367 62.13091797 47.19901367 62.13091797 45.9375 62.125 C44.69516602 62.13080078 44.69516602 62.13080078 43.42773438 62.13671875 C42.23954102 62.13478516 42.23954102 62.13478516 41.02734375 62.1328125 C39.94054321 62.13112061 39.94054321 62.13112061 38.83178711 62.12939453 C37 62 37 62 35 61 C35 60.34 35 59.68 35 59 C35.65194336 58.57356201 36.30388672 58.14712402 36.97558594 57.70776367 C39.23727968 56.16606285 39.23727968 56.16606285 39.45410156 53.5480957 C39.4331543 52.60023193 39.41220703 51.65236816 39.390625 50.67578125 C39.38063477 49.74934814 39.37064453 48.82291504 39.36035156 47.8684082 C39.32393555 46.6949585 39.28751953 45.52150879 39.25 44.3125 C39.1675 40.579375 39.085 36.84625 39 33 C31.41 33 23.82 33 16 33 C16.32708094 38.32458839 16.32708094 38.32458839 16.65820312 43.64892578 C16.69880859 44.3242334 16.73941406 44.99954102 16.78125 45.6953125 C16.82572266 46.42878906 16.87019531 47.16226563 16.91601562 47.91796875 C16.99027741 49.75897023 16.94180407 51.60402532 16.875 53.4453125 C16.91625 54.28835938 16.9575 55.13140625 17 56 C19.42672567 57.78969026 19.42672567 57.78969026 22 59 C22 59.66 22 60.32 22 61 C14.42484727 62.12224485 6.49957186 62.99988583 -1 61 C-1 60.34 -1 59.68 -1 59 C0.65 58.34 2.3 57.68 4 57 C3.67 39.84 3.34 22.68 3 5 C1.68 4.34 0.36 3.68 -1 3 C-0.67 2.01 -0.34 1.02 0 0 Z " fill="#112041" transform="translate(374,210)"/>
<path d="M0 0 C1 1 1 1 1.1328125 3.65234375 C1.13023437 4.73644531 1.12765625 5.82054687 1.125 6.9375 C1.12886719 8.55978516 1.12886719 8.55978516 1.1328125 10.21484375 C1 13 1 13 0 15 C-2.4932534 14.00269864 -3.77467439 13.34925469 -5.25 11.0625 C-6 9 -6 9 -6 6 C-7.32338632 5.31379969 -8.65949948 4.65213539 -10 4 C-10.70125 3.62875 -11.4025 3.2575 -12.125 2.875 C-17.66331534 1.18942577 -23.03447416 1.2495265 -28.4375 3.3125 C-34.4935897 7.30065663 -37.07319002 12.57218062 -38.640625 19.6796875 C-40.03358604 28.67337072 -38.98339391 35.3684829 -35.09375 43.6015625 C-34 46 -34 46 -34 48 C-27.84352687 51.31502399 -21.98313369 52.86336926 -15 52 C-13.68 51.34 -12.36 50.68 -11 50 C-10.67 44.06 -10.34 38.12 -10 32 C-11.32 31.67 -12.64 31.34 -14 31 C-13.67 29.68 -13.34 28.36 -13 27 C-6.07 27 0.86 27 8 27 C8 30 8 30 6.5625 31.5625 C6.046875 32.036875 5.53125 32.51125 5 33 C3.88176185 35.23647631 3.80603939 36.64891529 3.68359375 39.1328125 C3.62075195 40.34130859 3.62075195 40.34130859 3.55664062 41.57421875 C3.51732422 42.41597656 3.47800781 43.25773437 3.4375 44.125 C3.37272461 45.39923828 3.37272461 45.39923828 3.30664062 46.69921875 C3.20045764 48.79928223 3.09971503 50.89961948 3 53 C1.62929219 53.65489373 0.25316556 54.29844963 -1.125 54.9375 C-2.27355469 55.47697266 -2.27355469 55.47697266 -3.4453125 56.02734375 C-14.27696467 60.15132141 -27.55267552 58.97892979 -38.125 54.75 C-41.74416339 52.54703098 -44.1745898 50.16176855 -47 47 C-47 46.34 -47 45.68 -47 45 C-47.66 45 -48.32 45 -49 45 C-54.23211968 32.91006631 -55.52605618 25.40561512 -51 13 C-50.67 12.34 -50.34 11.68 -50 11 C-49.34 11 -48.68 11 -48 11 C-47.75378906 10.24976563 -47.50757813 9.49953125 -47.25390625 8.7265625 C-44.85800331 3.51677979 -39.77329253 0.27359191 -34.65234375 -2.078125 C-32.44861042 -2.84924267 -30.27167472 -3.46474455 -28 -4 C-26.906875 -4.268125 -25.81375 -4.53625 -24.6875 -4.8125 C-16.3062955 -5.23866294 -7.73199845 -3.21401361 0 0 Z " fill="#12213D" transform="translate(350,214)"/>
<path d="M0 0 C0.86825912 0.00222061 1.73651825 0.00444122 2.63108826 0.00672913 C3.61202957 0.00680466 4.59297089 0.00688019 5.6036377 0.00695801 C6.6702916 0.01211929 7.7369455 0.01728058 8.83592224 0.02259827 C9.92211349 0.02401321 11.00830475 0.02542816 12.12741089 0.02688599 C15.61230674 0.03250403 19.09713941 0.04505959 22.58201599 0.05775452 C24.93813486 0.06276719 27.29425473 0.0673305 29.65037537 0.07142639 C35.44011063 0.08247933 41.2298088 0.09923501 47.01951599 0.12025452 C48.2818933 2.64500913 48.11808003 4.43225917 48.08201599 7.24525452 C48.07299255 8.15533264 48.06396912 9.06541077 48.05467224 10.00306702 C48.04307068 10.70173889 48.03146912 11.40041077 48.01951599 12.12025452 C46.69951599 12.45025452 45.37951599 12.78025452 44.01951599 13.12025452 C43.60701599 12.35712952 43.19451599 11.59400452 42.76951599 10.80775452 C40.99443734 8.08174087 39.86241168 6.66354075 37.01951599 5.12025452 C33.89364724 4.78627664 33.89364724 4.78627664 31.01951599 5.12025452 C28.87394122 7.26582929 29.53978416 11.90651236 29.39451599 14.87025452 C29.32696106 16.23090027 29.32696106 16.23090027 29.25804138 17.61903381 C28.74437414 30.45644308 29.42660522 43.29536594 30.01951599 56.12025452 C31.33951599 56.78025452 32.65951599 57.44025452 34.01951599 58.12025452 C34.01951599 58.78025452 34.01951599 59.44025452 34.01951599 60.12025452 C31.19539834 61.06162707 29.49033567 61.23750834 26.57029724 61.21791077 C25.72273865 61.21468811 24.87518005 61.21146545 24.00193787 61.20814514 C23.12086365 61.19976624 22.23978943 61.19138733 21.33201599 61.18275452 C20.43934021 61.1782428 19.54666443 61.17373108 18.62693787 61.16908264 C16.42439612 61.15730434 14.22199 61.14085616 12.01951599 61.12025452 C12.01951599 59.80025452 12.01951599 58.48025452 12.01951599 57.12025452 C13.00951599 56.46025452 13.99951599 55.80025452 15.01951599 55.12025452 C15.45725187 52.90286813 15.45725187 52.90286813 15.36009216 50.30335999 C15.35986557 49.30247345 15.35963898 48.30158691 15.35940552 47.27037048 C15.34392166 46.18700409 15.32843781 45.1036377 15.31248474 43.98744202 C15.30611748 42.32698349 15.30611748 42.32698349 15.29962158 40.63298035 C15.28278813 37.08682742 15.24512679 33.54123655 15.20701599 29.99525452 C15.19197522 27.59552312 15.17828576 25.19578285 15.16600037 22.79603577 C15.13286937 16.90391593 15.08262376 11.01212537 15.01951599 5.12025452 C12.70951599 4.79025452 10.39951599 4.46025452 8.01951599 4.12025452 C8.01951599 4.78025452 8.01951599 5.44025452 8.01951599 6.12025452 C7.23576599 6.57400452 6.45201599 7.02775452 5.64451599 7.49525452 C2.89592109 9.19676565 2.14030567 10.16544536 1.01951599 13.12025452 C-0.30048401 12.79025452 -1.62048401 12.46025452 -2.98048401 12.12025452 C-3.0073568 10.307834 -3.02682116 8.49530218 -3.04298401 6.68275452 C-3.05458557 5.67341858 -3.06618713 4.66408264 -3.07814026 3.62416077 C-2.94376365 0.17874463 -2.94376365 0.17874463 0 0 Z " fill="#071534" transform="translate(448.98048400878906,210.87974548339844)"/>
<path d="M0 0 C2.49443252 2.49443252 2.31011539 3.42944367 2.48657227 6.88598633 C2.54325577 7.90497513 2.59993927 8.92396393 2.65834045 9.97383118 C2.73658302 11.63614021 2.73658302 11.63614021 2.81640625 13.33203125 C2.87779282 14.47475998 2.93917938 15.61748871 3.00242615 16.79484558 C3.19794562 20.46699591 3.38059972 24.13965212 3.5625 27.8125 C3.75065464 31.4458893 3.94145302 35.0791292 4.13328552 38.71232605 C4.25179577 40.97399461 4.36773949 43.23579973 4.48060608 45.49775696 C4.82027344 52.18346241 5.29617005 58.84116697 5.90293884 65.50834656 C5.93496902 66.33059219 5.96699921 67.15283783 6 68 C5.67 68.33 5.34 68.66 5 69 C6.24136719 69.32613281 7.48273438 69.65226562 8.76171875 69.98828125 C10.40375399 70.429285 12.04567514 70.87071367 13.6875 71.3125 C14.50412109 71.52583984 15.32074219 71.73917969 16.16210938 71.95898438 C20.53962777 73.14640839 24.22538079 74.37852311 28 77 C28.84820312 76.07960938 29.69640625 75.15921875 30.5703125 74.2109375 C37.38961345 66.84256271 44.29290142 59.59461861 51.46728516 52.56982422 C53.75206665 50.31979225 55.85955254 48.19005362 57.76953125 45.60546875 C58.17558594 45.07566406 58.58164062 44.54585937 59 44 C59.66 44 60.32 44 61 44 C61.37125 43.13375 61.37125 43.13375 61.75 42.25 C63.18299988 39.67060021 64.78424676 37.93878408 67 36 C67.66 36 68.32 36 69 36 C69 35.34 69 34.68 69 34 C70.32 33.67 71.64 33.34 73 33 C72.41353196 36.16434953 71.5072084 37.87728667 69.33203125 40.23046875 C65.88108576 44.09383676 62.77878284 48.15870899 59.6875 52.3125 C59.15060547 53.02728516 58.61371094 53.74207031 58.06054688 54.47851562 C55.29886185 58.09375293 55.29886185 58.09375293 53 62 C52.34 62 51.68 62 51 62 C50.77054687 62.5259375 50.54109375 63.051875 50.3046875 63.59375 C48.56146657 66.80879219 46.36348152 69.62195233 44.125 72.5 C43.69058594 73.06847656 43.25617188 73.63695312 42.80859375 74.22265625 C40.3829727 77.36212373 37.87835261 80.26891194 35 83 C35.7425 83.721875 36.485 84.44375 37.25 85.1875 C42.05102093 90.09763504 49 97.66758869 49 105 C49.67160156 104.97679687 50.34320313 104.95359375 51.03515625 104.9296875 C62.41900025 104.72404387 73.68021756 105.90907646 85 107 C85 107.33 85 107.66 85 108 C83.82812134 107.99214478 83.82812134 107.99214478 82.63256836 107.98413086 C79.06755387 107.96324881 75.50255229 107.95030419 71.9375 107.9375 C70.70837891 107.92912109 69.47925781 107.92074219 68.21289062 107.91210938 C62.35129285 107.89630992 56.77763007 108.02624212 51 109 C48.5625 108.5625 48.5625 108.5625 47 108 C47 106.02 47 104.04 47 102 C46.360625 101.773125 45.72125 101.54625 45.0625 101.3125 C43 100 43 100 42.3125 97.5625 C42.1578125 96.2940625 42.1578125 96.2940625 42 95 C41.67 94.01 41.34 93.02 41 92 C38.98491642 91.26676204 38.98491642 91.26676204 37 91 C36.938125 90.21625 36.87625 89.4325 36.8125 88.625 C36.544375 87.75875 36.27625 86.8925 36 86 C33.57616923 84.83046584 33.57616923 84.83046584 31 84 C30.34 83.01 29.68 82.02 29 81 C25.94570927 79.78715124 25.94570927 79.78715124 23 79 C23 78.01 23 77.02 23 76 C21.4221875 75.814375 21.4221875 75.814375 19.8125 75.625 C16 75 16 75 13.64770508 73.97314453 C10.54365581 72.83227405 8.12565196 72.77216106 4.82421875 72.8046875 C3.66728516 72.81113281 2.51035156 72.81757813 1.31835938 72.82421875 C0.12017578 72.84097656 -1.07800781 72.85773438 -2.3125 72.875 C-4.1387793 72.88853516 -4.1387793 72.88853516 -6.00195312 72.90234375 C-9.00150274 72.92586963 -12.00065044 72.95874347 -15 73 C-12.6870518 70.6870518 -11.52095125 70.50419025 -8.375 69.875 C-7.55773437 69.70742187 -6.74046875 69.53984375 -5.8984375 69.3671875 C-5.27195312 69.24601562 -4.64546875 69.12484375 -4 69 C-4.18030762 68.13358887 -4.36061523 67.26717773 -4.54638672 66.37451172 C-5.40812711 60.27367958 -4.68060921 54.1242145 -4.2578125 48.0078125 C-4.16859702 46.6526106 -4.07989057 45.2973751 -3.9916687 43.94210815 C-3.80613661 41.11602677 -3.6156579 38.29033754 -3.42138672 35.46484375 C-3.17218342 31.83697163 -2.93366245 28.20849279 -2.69854927 24.5796833 C-2.51682352 21.78801354 -2.33044926 18.99667004 -2.14254379 16.20541 C-2.0091413 14.21513725 -1.8789593 12.2246495 -1.74880981 10.23416138 C-1.62395706 8.43626663 -1.62395706 8.43626663 -1.49658203 6.60205078 C-1.42472687 5.54172638 -1.3528717 4.48140198 -1.27883911 3.38894653 C-1 1 -1 1 0 0 Z " fill="#F06941" transform="translate(305,87)"/>
<path d="M0 0 C6.93 0 13.86 0 21 0 C21 1.32 21 2.64 21 4 C19.02 4.99 19.02 4.99 17 6 C16.67 12.6 16.34 19.2 16 26 C16.66 26 17.32 26 18 26 C18 26.66 18 27.32 18 28 C19.04800781 27.96519531 19.04800781 27.96519531 20.1171875 27.9296875 C21.02726562 27.91164062 21.93734375 27.89359375 22.875 27.875 C24.23238281 27.84019531 24.23238281 27.84019531 25.6171875 27.8046875 C28 28 28 28 30 30 C25.05 30 20.1 30 15 30 C15.33 32.0625 15.66 34.125 16 36.25 C16.88092665 42.15280781 17.05641086 47.63241316 16.58203125 53.57421875 C16.71996094 54.37472656 16.85789062 55.17523438 17 56 C19.44912595 57.73635424 19.44912595 57.73635424 22 59 C22 59.66 22 60.32 22 61 C14.42484727 62.12224485 6.49957186 62.99988583 -1 61 C-1 60.34 -1 59.68 -1 59 C0.65 58.34 2.3 57.68 4 57 C3.67 39.84 3.34 22.68 3 5 C1.68 4.34 0.36 3.68 -1 3 C-0.67 2.01 -0.34 1.02 0 0 Z " fill="#091739" transform="translate(374,210)"/>
<path d="M0 0 C6.93 0 13.86 0 21 0 C21 1.32 21 2.64 21 4 C20.01 4.33 19.02 4.66 18 5 C18 22.16 18 39.32 18 57 C19.32 57.66 20.64 58.32 22 59 C21.67 59.99 21.34 60.98 21 62 C14.07 62 7.14 62 0 62 C-0.495 60.515 -0.495 60.515 -1 59 C1.475 58.505 1.475 58.505 4 58 C4.02529174 50.77344508 4.04284219 43.5469015 4.05493164 36.3203125 C4.05996989 33.86034722 4.0668006 31.40038495 4.07543945 28.94042969 C4.08752723 25.41079975 4.09323329 21.88120931 4.09765625 18.3515625 C4.10281754 17.24632233 4.10797882 16.14108215 4.11329651 15.00234985 C4.11337204 13.98144257 4.11344757 12.96053528 4.11352539 11.90869141 C4.115746 11.00712311 4.11796661 10.10555481 4.12025452 9.17666626 C4.1419285 6.95286252 4.1419285 6.95286252 3 5 C0.98330173 3.86649466 0.98330173 3.86649466 -1 3 C-0.67 2.01 -0.34 1.02 0 0 Z " fill="#F63F1B" transform="translate(258,210)"/>
<path d="M0 0 C8.20340497 -0.16115537 16.32099618 0.33934671 24.5 0.9375 C26.41039062 1.06801758 26.41039062 1.06801758 28.359375 1.20117188 C29.57109375 1.28818359 30.7828125 1.37519531 32.03125 1.46484375 C33.13017578 1.543396 34.22910156 1.62194824 35.36132812 1.70288086 C38 2 38 2 40 3 C40 3.66 40 4.32 40 5 C34.71654698 5.88018036 29.65022277 6.14010739 24.29969788 6.12025452 C23.02278341 6.12153615 23.02278341 6.12153615 21.72007269 6.12284368 C18.88114977 6.12448457 16.04228657 6.11899997 13.20336914 6.11352539 C11.16295371 6.11324319 9.12253818 6.11340189 7.0821228 6.1139679 C1.55171305 6.1142546 -3.97867498 6.10837838 -9.50907969 6.10139394 C-15.29198646 6.09513926 -21.07489372 6.09455493 -26.85780334 6.09336853 C-37.80465052 6.09026146 -48.75148769 6.08205646 -59.69833046 6.07201904 C-72.16258321 6.06083855 -84.62683643 6.05534257 -97.09109294 6.05032361 C-122.72740084 6.03987334 -148.36369986 6.02228596 -174 6 C-174 5.67 -174 5.34 -174 5 C-161.33260865 3.93206787 -148.73352677 3.91606149 -136.02908325 3.98168945 C-129.23164471 4.01462464 -122.43422667 4.02660495 -115.63671875 4.03125 C-114.87905653 4.03179886 -114.12139431 4.03234772 -113.34077263 4.03291321 C-87.91390308 4.04262755 -62.487858 3.74832315 -37.0625 3.5 C-35.82391739 3.48797546 -34.58533478 3.47595093 -33.30921936 3.46356201 C-17.87276494 3.31369169 -2.43635879 3.15941184 13 3 C8.71 2.34 4.42 1.68 0 1 C0 0.67 0 0.34 0 0 Z " fill="#EEB3A4" transform="translate(390,195)"/>
<path d="M0 0 C0.99 0.33 1.98 0.66 3 1 C3 2.65 3 4.3 3 6 C3.99 6.33 4.98 6.66 6 7 C5.01 7 4.02 7 3 7 C3 7.66 3 8.32 3 9 C5.0162233 8.28436734 5.0162233 8.28436734 7 7 C7.80528889 4.94999129 7.80528889 4.94999129 8 3 C8.66 3 9.32 3 10 3 C10.33 2.34 10.66 1.68 11 1 C14.2795333 3.41649822 16.53043635 5.17371675 18 9 C18.23046875 11.69140625 18.23046875 11.69140625 18.1875 14.5625 C18.18105469 15.51253906 18.17460937 16.46257812 18.16796875 17.44140625 C18 20 18 20 17 23 C16.34 23 15.68 23 15 23 C14.76539063 23.76699219 14.53078125 24.53398437 14.2890625 25.32421875 C12.3024274 29.44799162 9.52859658 30.32095419 5.44140625 32.0625 C-0.95875795 33.80601806 -7.42782945 33.37107613 -14 33 C-14.33 32.34 -14.66 31.68 -15 31 C-12.03 30.67 -9.06 30.34 -6 30 C-6.66 29.34 -7.32 28.68 -8 28 C-7.45730469 27.75765625 -6.91460937 27.5153125 -6.35546875 27.265625 C-5.64003906 26.93046875 -4.92460937 26.5953125 -4.1875 26.25 C-3.12595703 25.76273437 -3.12595703 25.76273437 -2.04296875 25.265625 C0.38489351 23.76155736 1.55668117 22.46420289 3 20 C3.56984448 17.42126391 3.56984448 17.42126391 3.6875 14.75 C3.75324219 13.85796875 3.81898438 12.9659375 3.88671875 12.046875 C3.92410156 11.37140625 3.96148437 10.6959375 4 10 C3.34 10 2.68 10 2 10 C1.67 8.35 1.34 6.7 1 5 C-0.65 4.67 -2.3 4.34 -4 4 C-2.68 2.68 -1.36 1.36 0 0 Z " fill="#111F3F" transform="translate(153,239)"/>
<path d="M0 0 C2.49443252 2.49443252 2.31011539 3.42944367 2.48657227 6.88598633 C2.54325577 7.90497513 2.59993927 8.92396393 2.65834045 9.97383118 C2.73658302 11.63614021 2.73658302 11.63614021 2.81640625 13.33203125 C2.87779282 14.47475998 2.93917938 15.61748871 3.00242615 16.79484558 C3.19794562 20.46699591 3.38059972 24.13965212 3.5625 27.8125 C3.75065464 31.4458893 3.94145302 35.0791292 4.13328552 38.71232605 C4.25179577 40.97399461 4.36773949 43.23579973 4.48060608 45.49775696 C4.86225147 53.00972015 5.39024033 60.50317191 6 68 C2.25712373 70.13181214 0.21015871 69.95685425 -4 69 C-5.46080456 61.98056646 -4.74920055 55.11649323 -4.2578125 48.0078125 C-4.16859702 46.6526106 -4.07989057 45.2973751 -3.9916687 43.94210815 C-3.80613661 41.11602677 -3.6156579 38.29033754 -3.42138672 35.46484375 C-3.17218342 31.83697163 -2.93366245 28.20849279 -2.69854927 24.5796833 C-2.51682352 21.78801354 -2.33044926 18.99667004 -2.14254379 16.20541 C-2.0091413 14.21513725 -1.8789593 12.2246495 -1.74880981 10.23416138 C-1.66557465 9.03556488 -1.58233948 7.83696838 -1.49658203 6.60205078 C-1.42472687 5.54172638 -1.3528717 4.48140198 -1.27883911 3.38894653 C-1 1 -1 1 0 0 Z " fill="#EE9079" transform="translate(305,87)"/>
<path d="M0 0 C0.86825912 0.00222061 1.73651825 0.00444122 2.63108826 0.00672913 C3.61202957 0.00680466 4.59297089 0.00688019 5.6036377 0.00695801 C6.6702916 0.01211929 7.7369455 0.01728058 8.83592224 0.02259827 C9.92211349 0.02401321 11.00830475 0.02542816 12.12741089 0.02688599 C15.61230674 0.03250403 19.09713941 0.04505959 22.58201599 0.05775452 C24.93813486 0.06276719 27.29425473 0.0673305 29.65037537 0.07142639 C35.44011063 0.08247933 41.2298088 0.09923501 47.01951599 0.12025452 C48.2818933 2.64500913 48.11808003 4.43225917 48.08201599 7.24525452 C48.07299255 8.15533264 48.06396912 9.06541077 48.05467224 10.00306702 C48.04307068 10.70173889 48.03146912 11.40041077 48.01951599 12.12025452 C46.69951599 12.45025452 45.37951599 12.78025452 44.01951599 13.12025452 C43.60701599 12.35712952 43.19451599 11.59400452 42.76951599 10.80775452 C40.99443734 8.08174087 39.86241168 6.66354075 37.01951599 5.12025452 C33.90762133 4.87130294 31.82867073 4.71567715 29.01951599 6.12025452 C28.35951599 5.79025452 27.69951599 5.46025452 27.01951599 5.12025452 C27.01951599 3.80025452 27.01951599 2.48025452 27.01951599 1.12025452 C24.20269039 3.50673176 23.41517212 5.51244901 22.51951599 9.05775452 C21.32299185 13.77975159 21.32299185 13.77975159 19.49876404 15.82655334 C17.43812852 19.02174573 17.58528427 21.51076243 17.50779724 25.29212952 C17.48984604 25.97454712 17.47189484 26.65696472 17.45339966 27.36006165 C17.39941216 29.53006392 17.36544016 31.69984777 17.33201599 33.87025452 C17.29883247 35.34554525 17.26434184 36.82080721 17.22850037 38.29603577 C17.14369442 41.90389879 17.07682762 45.51183814 17.01951599 49.12025452 C16.68951599 49.12025452 16.35951599 49.12025452 16.01951599 49.12025452 C15.68951599 34.60025452 15.35951599 20.08025452 15.01951599 5.12025452 C12.70951599 4.79025452 10.39951599 4.46025452 8.01951599 4.12025452 C8.01951599 4.78025452 8.01951599 5.44025452 8.01951599 6.12025452 C7.23576599 6.57400452 6.45201599 7.02775452 5.64451599 7.49525452 C2.89592109 9.19676565 2.14030567 10.16544536 1.01951599 13.12025452 C-0.30048401 12.79025452 -1.62048401 12.46025452 -2.98048401 12.12025452 C-3.0073568 10.307834 -3.02682116 8.49530218 -3.04298401 6.68275452 C-3.05458557 5.67341858 -3.06618713 4.66408264 -3.07814026 3.62416077 C-2.94376365 0.17874463 -2.94376365 0.17874463 0 0 Z " fill="#1A2941" transform="translate(448.98048400878906,210.87974548339844)"/>
<path d="M0 0 C0.495 0.99 0.495 0.99 1 2 C1.66 2 2.32 2 3 2 C3.495 4.475 3.495 4.475 4 7 C-18.34291264 8.2240908 -40.61561588 9.40922092 -63 9 C-63.33 8.01 -63.66 7.02 -64 6 C-50.37418773 4.11401294 -36.70750355 2.98129822 -23 1.875 C-20.76039113 1.69171799 -18.52080758 1.50812641 -16.28125 1.32421875 C-10.85445284 0.87924886 -5.4273575 0.43807964 0 0 Z " fill="#D3100C" transform="translate(244,192)"/>
<path d="M0 0 C4.07507572 -0.04946866 8.15003497 -0.08575189 12.2253418 -0.10986328 C13.61144048 -0.1199157 14.99751799 -0.1335597 16.38354492 -0.15087891 C18.3766975 -0.17515952 20.37000533 -0.18542031 22.36328125 -0.1953125 C24.16212769 -0.21102295 24.16212769 -0.21102295 25.99731445 -0.22705078 C29 0 29 0 32 2 C31.01 3.65 30.02 5.3 29 7 C23.06 6.01 23.06 6.01 17 5 C17.01160156 6.70929688 17.02320313 8.41859375 17.03515625 10.1796875 C17.04453343 12.41145725 17.05363371 14.64322817 17.0625 16.875 C17.07087891 18.00292969 17.07925781 19.13085938 17.08789062 20.29296875 C17.09272461 21.90751953 17.09272461 21.90751953 17.09765625 23.5546875 C17.10551147 25.04718018 17.10551147 25.04718018 17.11352539 26.56982422 C17 29 17 29 16 31 C15.01 30.67 14.02 30.34 13 30 C13.165 28.865625 13.33 27.73125 13.5 26.5625 C13.88136878 23.41620755 14.14730205 20.2932319 14.25 17.125 C14.27578125 16.38507813 14.3015625 15.64515625 14.328125 14.8828125 C14.21984375 14.26148438 14.1115625 13.64015625 14 13 C13.01 12.34 12.02 11.68 11 11 C9.02 11.66 7.04 12.32 5 13 C5 22.24 5 31.48 5 41 C4.67 41 4.34 41 4 41 C4 28.79 4 16.58 4 4 C2.35 3.67 0.7 3.34 -1 3 C-0.67 2.01 -0.34 1.02 0 0 Z " fill="#101C3B" transform="translate(188,210)"/>
<path d="M0 0 C6.93 0 13.86 0 21 0 C21 1.32 21 2.64 21 4 C20.01 4.33 19.02 4.66 18 5 C18 22.16 18 39.32 18 57 C19.32 57.66 20.64 58.32 22 59 C21.67 59.99 21.34 60.98 21 62 C14.07 62 7.14 62 0 62 C-0.495 60.515 -0.495 60.515 -1 59 C1.475 58.505 1.475 58.505 4 58 C4.02529174 50.77344508 4.04284219 43.5469015 4.05493164 36.3203125 C4.05996989 33.86034722 4.0668006 31.40038495 4.07543945 28.94042969 C4.08752723 25.41079975 4.09323329 21.88120931 4.09765625 18.3515625 C4.10281754 17.24632233 4.10797882 16.14108215 4.11329651 15.00234985 C4.11337204 13.98144257 4.11344757 12.96053528 4.11352539 11.90869141 C4.115746 11.00712311 4.11796661 10.10555481 4.12025452 9.17666626 C4.1419285 6.95286252 4.1419285 6.95286252 3 5 C0.98330173 3.86649466 0.98330173 3.86649466 -1 3 C-0.67 2.01 -0.34 1.02 0 0 Z M6 3 C5.14914295 6.4034282 4.8781224 8.78643038 4.88647461 12.22753906 C4.88655014 13.26831604 4.88662567 14.30909302 4.88670349 15.38140869 C4.89186478 16.49820007 4.89702606 17.61499146 4.90234375 18.765625 C4.9037587 19.91415955 4.90517365 21.06269409 4.90663147 22.24603271 C4.91222857 25.91404831 4.92478056 29.58200285 4.9375 33.25 C4.94251537 35.73697829 4.94707822 38.22395753 4.95117188 40.7109375 C4.96219705 46.80731519 4.97945973 52.90364724 5 59 C8.63 59 12.26 59 16 59 C15.67 40.52 15.34 22.04 15 3 C12.03 3 9.06 3 6 3 Z " fill="#EB6958" transform="translate(258,210)"/>
<path d="M0 0 C2.475 0.495 2.475 0.495 5 1 C6.33564692 8.17910217 6.34091822 12.31816355 3 19 C2.34 19.33 1.68 19.66 1 20 C1 20.66 1 21.32 1 22 C1.66 22.33 2.32 22.66 3 23 C3 23.66 3 24.32 3 25 C2.34 25 1.68 25 1 25 C0.67 26.65 0.34 28.3 0 30 C-1.32 30.33 -2.64 30.66 -4 31 C-4.1953125 28.94921875 -4.390625 26.8984375 -4.5859375 24.84765625 C-4.79089844 23.93306641 -4.79089844 23.93306641 -5 23 C-5.66 22.67 -6.32 22.34 -7 22 C-7.33 22.99 -7.66 23.98 -8 25 C-11.37462715 24.45276317 -13.08235 23.9451 -16 22 C-15.195625 21.21625 -14.39125 20.4325 -13.5625 19.625 C-11.01309583 17.28017144 -11.01309583 17.28017144 -10 15 C-9.01 15 -8.02 15 -7 15 C-5.50859979 11.37802806 -4.2125738 7.72433382 -3 4 C-2.34 4 -1.68 4 -1 4 C-0.67 2.68 -0.34 1.36 0 0 Z " fill="#0E1D3B" transform="translate(160,217)"/>
<path d="M0 0 C3.78611227 0.54087318 5.55400767 2.11722332 8 5 C8 5.66 8 6.32 8 7 C8.66 7 9.32 7 10 7 C11.69140625 8.64453125 11.69140625 8.64453125 13.5625 10.8125 C14.18253906 11.52019531 14.80257812 12.22789062 15.44140625 12.95703125 C17 15 17 15 18 18 C19.3153341 18.70151152 20.65117592 19.36525925 22 20 C23.75 21.5 23.75 21.5 25 23 C25 23.66 25 24.32 25 25 C25.66 25 26.32 25 27 25 C27.66 27.31 28.32 29.62 29 32 C29.66 32 30.32 32 31 32 C31.33 33.32 31.66 34.64 32 36 C32.99 36 33.98 36 35 36 C35 36.66 35 37.32 35 38 C35.99 38 36.98 38 38 38 C38 39.65 38 41.3 38 43 C36.35 43 34.7 43 33 43 C32.67 42.01 32.34 41.02 32 40 C31.39542969 39.87367188 30.79085938 39.74734375 30.16796875 39.6171875 C26.98012929 38.70965843 26.14423975 36.83612843 24.3125 34.125 C21.45627593 30.02184229 18.50819824 26.09549022 15.3125 22.25 C6 10.9879974 6 10.9879974 6 8 C5.01 7.67 4.02 7.34 3 7 C0.67734388 4.41927097 0 3.54823932 0 0 Z " fill="#CD4745" transform="translate(233,120)"/>
<path d="M0 0 C-0.58646804 3.16434953 -1.4927916 4.87728667 -3.66796875 7.23046875 C-7.11891424 11.09383676 -10.22121716 15.15870899 -13.3125 19.3125 C-14.1178418 20.38467773 -14.1178418 20.38467773 -14.93945312 21.47851562 C-17.70113815 25.09375293 -17.70113815 25.09375293 -20 29 C-20.66 29 -21.32 29 -22 29 C-22.268125 29.598125 -22.53625 30.19625 -22.8125 30.8125 C-23.98493467 32.97224808 -25.19369282 34.35790256 -27 36 C-27 33.69 -27 31.38 -27 29 C-27.99 28.67 -28.98 28.34 -30 28 C-29.09636719 27.10796875 -28.19273437 26.2159375 -27.26171875 25.296875 C-26.07017921 24.11471766 -24.87878034 22.93241853 -23.6875 21.75 C-23.09259766 21.16347656 -22.49769531 20.57695312 -21.88476562 19.97265625 C-19.48378724 17.58509116 -17.22517904 15.3041634 -15.20703125 12.578125 C-14.80871094 12.05734375 -14.41039062 11.5365625 -14 11 C-13.34 11 -12.68 11 -12 11 C-11.7525 10.4225 -11.505 9.845 -11.25 9.25 C-9.81700012 6.67060021 -8.21575324 4.93878408 -6 3 C-5.34 3 -4.68 3 -4 3 C-4 2.34 -4 1.68 -4 1 C-2 0 -2 0 0 0 Z " fill="#EE6E49" transform="translate(378,120)"/>
<path d="M0 0 C2.77049624 2.77049624 2.46443126 5.39628356 2.625 9.125 C2.66294678 9.87894043 2.70089355 10.63288086 2.73999023 11.40966797 C3.31547577 24.92118088 3.08091018 38.47928614 3 52 C2.67 52 2.34 52 2 52 C2 50.02 2 48.04 2 46 C1.34 46 0.68 46 0 46 C0 46.66 0 47.32 0 48 C-0.66 48 -1.32 48 -2 48 C-3.11709103 36.72341896 -2.91830152 25.74308861 -2.125 14.4375 C-2.03428223 13.13466064 -1.94356445 11.83182129 -1.85009766 10.48950195 C-1.13939797 1.13939797 -1.13939797 1.13939797 0 0 Z " fill="#E3361D" transform="translate(305,87)"/>
<path d="M0 0 C-3.76294608 4.18185371 -7.36124122 6.46592754 -12.4375 8.8125 C-16.72638385 10.8536432 -20.94790997 12.91104335 -25.01953125 15.36328125 C-25.96324585 15.93115356 -25.96324585 15.93115356 -26.92602539 16.51049805 C-28.66109922 17.57067901 -30.38555811 18.64817473 -32.109375 19.7265625 C-35 21 -35 21 -37.328125 20.4609375 C-39.33922382 18.70357545 -39.47045784 17.55553126 -40 15 C-32.25962651 11.43850786 -24.4738995 8.00289873 -16.625 4.6875 C-15.57183594 4.23310547 -14.51867187 3.77871094 -13.43359375 3.31054688 C-12.41652344 2.88193359 -11.39945312 2.45332031 -10.3515625 2.01171875 C-9.44229004 1.62459717 -8.53301758 1.23747559 -7.59619141 0.83862305 C-4.90581062 -0.0304251 -2.80723433 -0.16299049 0 0 Z " fill="#EC754B" transform="translate(388,160)"/>
<path d="M0 0 C6.14870087 0.47403392 10.60009742 1.89939199 16.0625 4.6875 C23.89865401 8.53971597 31.852412 11.86904915 40 15 C39.75 16.875 39.75 16.875 39 19 C37.21313477 20.24414062 37.21313477 20.24414062 35 21 C32.97631836 20.40429688 32.97631836 20.40429688 30.83984375 19.21875 C29.65672607 18.57812622 29.65672607 18.57812622 28.44970703 17.92456055 C27.20616455 17.21940308 27.20616455 17.21940308 25.9375 16.5 C25.08784668 16.03311768 24.23819336 15.56623535 23.36279297 15.08520508 C21.67160798 14.15484383 19.98369247 13.21851138 18.29931641 12.27587891 C15.43771444 10.68799062 12.53020129 9.19375347 9.625 7.6875 C5.73030694 5.56147004 2.87713565 3.37319352 0 0 Z " fill="#D64540" transform="translate(223,160)"/>
<path d="M0 0 C3.35409194 -0.05859857 6.70805017 -0.09379582 10.0625 -0.125 C11.47692383 -0.15013672 11.47692383 -0.15013672 12.91992188 -0.17578125 C21.29353281 -0.23413394 28.41953104 0.73542545 34.8125 6.6875 C35.204375 7.120625 35.59625 7.55375 36 8 C35.360625 8.103125 34.72125 8.20625 34.0625 8.3125 C33.381875 8.539375 32.70125 8.76625 32 9 C31.67 9.99 31.34 10.98 31 12 C30.34 12 29.68 12 29 12 C28.9175 13.0725 28.835 14.145 28.75 15.25 C27.94523098 19.2738451 27.12270126 20.48169253 24 23 C24.03480469 22.33613281 24.06960937 21.67226562 24.10546875 20.98828125 C24.45506891 13.91104497 24.45506891 13.91104497 21 8 C18.69855891 6.92863949 16.3659787 5.92010283 14 5 C13.67 4.34 13.34 3.68 13 3 C9.95418731 2.53045739 9.95418731 2.53045739 6.4375 2.375 C5.23996094 2.30023438 4.04242188 2.22546875 2.80859375 2.1484375 C1.88175781 2.09945312 0.95492187 2.05046875 0 2 C0 1.34 0 0.68 0 0 Z " fill="#1D2A48" transform="translate(128,209)"/>
<path d="M0 0 C0.66 0 1.32 0 2 0 C1.31604618 5.95202672 -0.10504319 11.55720608 -1.75 17.3125 C-2.01441895 18.24151123 -2.27883789 19.17052246 -2.55126953 20.12768555 C-4.4059749 26.44378423 -6.5586361 32.35068139 -10 38 C-11.98 37.34 -13.96 36.68 -16 36 C-14.46857875 30.98735829 -12.3913059 26.39544955 -10.125 21.6875 C-9.40551871 20.17743154 -8.68676139 18.66701792 -7.96875 17.15625 C-7.62714844 16.43824219 -7.28554688 15.72023437 -6.93359375 14.98046875 C-5.49638814 11.93166856 -4.13107281 8.85335933 -2.7890625 5.76171875 C-1.91534789 3.8109995 -0.96755895 1.90567045 0 0 Z " fill="#ED6A3C" transform="translate(335,122)"/>
<path d="M0 0 C3 1 3 1 4.54296875 3.52734375 C6.38282859 7.34254004 8.21077276 11.16081246 10 15 C10.36947754 15.77907715 10.73895508 16.5581543 11.11962891 17.36083984 C12.26131958 19.77560046 13.38360565 22.19845284 14.5 24.625 C15.04370239 25.77923462 15.04370239 25.77923462 15.59838867 26.95678711 C15.92685791 27.68518799 16.25532715 28.41358887 16.59375 29.1640625 C16.88958984 29.80811035 17.18542969 30.4521582 17.49023438 31.11572266 C18.11025252 33.40753301 17.7428997 34.7756201 17 37 C16.01 37 15.02 37 14 37 C13.67 37.66 13.34 38.32 13 39 C9.41702482 30.47251907 6.27086511 22.09116202 3.95703125 13.12109375 C3.07485167 9.92007976 3.07485167 9.92007976 1.38671875 6.84765625 C0 4 0 4 0 0 Z " fill="#DF5F52" transform="translate(273,122)"/>
<path d="M0 0 C0.33 0 0.66 0 1 0 C1.13510253 2.91821463 1.2341305 5.83017652 1.3125 8.75 C1.35439453 9.575 1.39628906 10.4 1.43945312 11.25 C1.48686732 13.601744 1.47157594 15.69402157 1 18 C-1.51953125 20.578125 -1.51953125 20.578125 -4 22 C-3.34 22.66 -2.68 23.32 -2 24 C-12.60429117 24.24853807 -21.41853872 24.26980371 -31 19 C-28.35261084 17.5393715 -27.10551666 17 -24 17 C-23.67 16.34 -23.34 15.68 -23 15 C-22.29875 15.309375 -21.5975 15.61875 -20.875 15.9375 C-15.12749661 18.06157734 -8.86491489 18.89995311 -2.8359375 17.49609375 C-0.58033842 15.99514565 -0.58033842 15.99514565 -0.390625 12.3046875 C-0.32414708 10.82887763 -0.27806121 9.35203983 -0.25 7.875 C-0.20552734 6.74384766 -0.20552734 6.74384766 -0.16015625 5.58984375 C-0.08942068 3.72714047 -0.04245017 1.86356245 0 0 Z " fill="#0C1A38" transform="translate(340,248)"/>
<path d="M0 0 C1.14662109 0.04253906 2.29324219 0.08507812 3.47460938 0.12890625 C4.67021484 0.18433594 5.86582031 0.23976562 7.09765625 0.296875 C8.25845703 0.33683594 9.41925781 0.37679687 10.61523438 0.41796875 C32.42955827 1.31627702 32.42955827 1.31627702 36.16015625 5.046875 C21.31015625 5.046875 6.46015625 5.046875 -8.83984375 5.046875 C-9.16984375 4.056875 -9.49984375 3.066875 -9.83984375 2.046875 C-6.44006259 -0.02639755 -3.94330035 -0.15212921 0 0 Z " fill="#F75621" transform="translate(368.83984375,193.953125)"/>
<path d="M0 0 C-7.22701781 4.81801187 -16.03113811 4.13143553 -24.4140625 4.00390625 C-28.69706303 3.99924067 -32.76352669 4.40540725 -37 5 C-34.03 5.495 -34.03 5.495 -31 6 C-31.33 6.66 -31.66 7.32 -32 8 C-40.58 8 -49.16 8 -58 8 C-58.33 7.01 -58.66 6.02 -59 5 C-48.60368268 3.63023574 -38.2076659 2.47731135 -27.76098633 1.56738281 C-25.5387416 1.37292097 -23.31724745 1.17104013 -21.09570312 0.96875 C-14.05057096 0.34049171 -7.08043162 -0.17561386 0 0 Z " fill="#CA5957" transform="translate(239,193)"/>
<path d="M0 0 C6.38856097 5.82486442 11.1841845 12.46566715 13 21 C14.00740234 20.96519531 14.00740234 20.96519531 15.03515625 20.9296875 C26.41900025 20.72404387 37.68021756 21.90907646 49 23 C49 23.33 49 23.66 49 24 C48.21874756 23.99476318 47.43749512 23.98952637 46.63256836 23.98413086 C43.06755387 23.96324881 39.50255229 23.95030419 35.9375 23.9375 C34.70837891 23.92912109 33.47925781 23.92074219 32.21289062 23.91210938 C26.35129285 23.89630992 20.77763007 24.02624212 15 25 C12.5625 24.5625 12.5625 24.5625 11 24 C11 22.02 11 20.04 11 18 C10.360625 17.773125 9.72125 17.54625 9.0625 17.3125 C7 16 7 16 6.3125 13.5625 C6.209375 12.716875 6.10625 11.87125 6 11 C5.67 10.01 5.34 9.02 5 8 C2.98491642 7.26676204 2.98491642 7.26676204 1 7 C0.67 4.69 0.34 2.38 0 0 Z " fill="#F17C56" transform="translate(341,171)"/>
<path d="M0 0 C1.22589844 0.15275391 1.22589844 0.15275391 2.4765625 0.30859375 C3.41628906 0.43427734 3.41628906 0.43427734 4.375 0.5625 C4.375 1.2225 4.375 1.8825 4.375 2.5625 C5.035 2.5625 5.695 2.5625 6.375 2.5625 C6.375 1.9025 6.375 1.2425 6.375 0.5625 C7.035 0.5625 7.695 0.5625 8.375 0.5625 C8.705 1.8825 9.035 3.2025 9.375 4.5625 C10.15875 4.645 10.9425 4.7275 11.75 4.8125 C14.375 5.5625 14.375 5.5625 15.6875 7.625 C15.914375 8.264375 16.14125 8.90375 16.375 9.5625 C11.32272215 11.24659262 6.0309281 11.62048128 1.01171875 9.62109375 C-2.3586287 7.6555712 -4.26781238 6.23222679 -6.125 2.75 C-6.29 2.028125 -6.455 1.30625 -6.625 0.5625 C-4.10446405 -0.69776798 -2.7707902 -0.35624445 0 0 Z " fill="#202D46" transform="translate(226.625,261.4375)"/>
<path d="M0 0 C0.33 0 0.66 0 1 0 C1.2475 1.11375 1.495 2.2275 1.75 3.375 C2.61005339 7.04615198 2.61005339 7.04615198 5.125 8.4375 C5.74375 8.623125 6.3625 8.80875 7 9 C7 9.66 7 10.32 7 11 C4.17588235 11.94137255 2.47081968 12.11725382 -0.44921875 12.09765625 C-1.29677734 12.09443359 -2.14433594 12.09121094 -3.01757812 12.08789062 C-3.89865234 12.07951172 -4.77972656 12.07113281 -5.6875 12.0625 C-6.58017578 12.05798828 -7.47285156 12.05347656 -8.39257812 12.04882812 C-10.59511987 12.03704983 -12.79752599 12.02060164 -15 12 C-15 10.68 -15 9.36 -15 8 C-14.01 7.34 -13.02 6.68 -12 6 C-11.27034634 3.43717258 -11.27034634 3.43717258 -11 1 C-10.34 1 -9.68 1 -9 1 C-9 1.99 -9 2.98 -9 4 C-8.01 3.67 -7.02 3.34 -6 3 C-5.01 3.33 -4.02 3.66 -3 4 C-2.34 3.67 -1.68 3.34 -1 3 C-0.67 2.01 -0.34 1.02 0 0 Z " fill="#071635" transform="translate(476,260)"/>
<path d="M0 0 C0 7.54546119 -7.07079042 18.39862548 -12 24 C-12.66 24 -13.32 24 -14 24 C-14.33 24.99 -14.66 25.98 -15 27 C-17.97 27 -20.94 27 -24 27 C-24 26.34 -24 25.68 -24 25 C-24.66 25 -25.32 25 -26 25 C-26 24.34 -26 23.68 -26 23 C-25.29875 23.10183594 -24.5975 23.20367187 -23.875 23.30859375 C-20.43305313 23.46292017 -18.21582416 23.29738938 -15 22 C-12.42981213 18.41503105 -10.69300689 14.76054567 -8.859375 10.76953125 C-6.72623329 6.17376575 -3.83976203 3.27979674 0 0 Z " fill="#E56466" transform="translate(271,169)"/>
<path d="M0 0 C0.99 0.495 0.99 0.495 2 1 C2 1.66 2 2.32 2 3 C2.99 3.33 3.98 3.66 5 4 C7.1875 5.9375 7.1875 5.9375 9 8 C9 8.66 9 9.32 9 10 C9.99 10.33 10.98 10.66 12 11 C16 15.34285714 16 15.34285714 16 19 C18.97 17.68 21.94 16.36 25 15 C25.33 15.99 25.66 16.98 26 18 C22.45307425 20.36461717 20.19852591 20.38433327 16.05859375 20.65625 C13.78100001 20.8316748 13.78100001 20.8316748 12 23 C9.37424814 22.79519136 8.29868104 22.32776314 6.515625 20.37109375 C5.88914062 19.41396484 5.88914062 19.41396484 5.25 18.4375 C4.60804688 17.47650391 4.60804688 17.47650391 3.953125 16.49609375 C3.63859375 16.00238281 3.3240625 15.50867188 3 15 C3.66 14.67 4.32 14.34 5 14 C5.33 14.66 5.66 15.32 6 16 C8.52733235 16.65555119 8.52733235 16.65555119 11 17 C11 15.35 11 13.7 11 12 C10.01 12 9.02 12 8 12 C8 11.34 8 10.68 8 10 C7.01 10 6.02 10 5 10 C4.67 8.68 4.34 7.36 4 6 C3.34 6 2.68 6 2 6 C1.34 4.02 0.68 2.04 0 0 Z " fill="#E05954" transform="translate(260,146)"/>
<path d="M0 0 C0.33 0 0.66 0 1 0 C1 16.83 1 33.66 1 51 C4.3 51.33 7.6 51.66 11 52 C11.33 51.01 11.66 50.02 12 49 C13.65 49.99 15.3 50.98 17 52 C16.67 52.99 16.34 53.98 16 55 C9.07 55 2.14 55 -5 55 C-5.495 53.515 -5.495 53.515 -6 52 C-3.525 51.505 -3.525 51.505 -1 51 C-0.67 34.17 -0.34 17.34 0 0 Z " fill="#E37A64" transform="translate(263,217)"/>
<path d="M0 0 C6.93 0 13.86 0 21 0 C20.01 0.495 20.01 0.495 19 1 C19 1.66 19 2.32 19 3 C20.32 3.33 21.64 3.66 23 4 C23 12.58 23 21.16 23 30 C22.34 29.67 21.68 29.34 21 29 C21 21.41 21 13.82 21 6 C13.41 6 5.82 6 -2 6 C-2.33 6.66 -2.66 7.32 -3 8 C-3 6.35 -3 4.7 -3 3 C3.435 2.505 3.435 2.505 10 2 C6.7 1.67 3.4 1.34 0 1 C0 0.67 0 0.34 0 0 Z " fill="#6E7487" transform="translate(392,237)"/>
<path d="M0 0 C2.97 0 5.94 0 9 0 C10.37504799 2.75009598 9.6294275 3.96944052 8.75 6.875 C8.49734375 7.73867187 8.2446875 8.60234375 7.984375 9.4921875 C7 12 7 12 5.47045898 13.70849609 C3.42075918 16.9026655 3.56563394 19.39706375 3.48828125 23.171875 C3.47033005 23.8542926 3.45237885 24.53671021 3.43388367 25.23980713 C3.37989617 27.4098094 3.34592417 29.57959325 3.3125 31.75 C3.27931648 33.22529074 3.24482585 34.70055269 3.20898438 36.17578125 C3.12417842 39.78364427 3.05731163 43.39158362 3 47 C2.67 47 2.34 47 2 47 C1.97494385 45.68281982 1.9498877 44.36563965 1.92407227 43.00854492 C1.82999118 38.12758438 1.72977208 33.24676592 1.62768555 28.3659668 C1.58433936 26.2523938 1.54266406 24.13878586 1.50268555 22.02514648 C1.44497551 18.98931336 1.38128299 15.95365611 1.31640625 12.91796875 C1.29969376 11.97100632 1.28298126 11.02404388 1.26576233 10.04838562 C1.24581711 9.16769913 1.22587189 8.28701263 1.20532227 7.37963867 C1.18977798 6.60464523 1.1742337 5.82965179 1.15821838 5.03117371 C1.06644623 2.79667507 1.06644623 2.79667507 0 0 Z " fill="#414D67" transform="translate(463,213)"/>
<path d="M0 0 C0.68229871 6.36812129 -0.39362632 9.41779248 -4.19921875 14.53125 C-6.55395875 16.45181885 -8.041829 16.28221052 -11 16 C-11.58941244 11.87411294 -11.94158779 8.43183597 -9.58203125 4.84375 C-4.92686988 0 -4.92686988 0 0 0 Z " fill="#F35227" transform="translate(351,149)"/>
<path d="M0 0 C1.41928261 2.64932753 2.31863453 5.07986225 3 8 C3.94729537 10.15811388 3.94729537 10.15811388 6 12 C5.67 12.99 5.34 13.98 5 15 C5 14.34 5 13.68 5 13 C4.071875 13.66 3.14375 14.32 2.1875 15 C-1 17 -1 17 -4 17 C-7.07692308 11.58461538 -7.07692308 11.58461538 -6.6875 8.625 C-6.460625 8.08875 -6.23375 7.5525 -6 7 C-5.34 7 -4.68 7 -4 7 C-3.71125 6.21625 -3.4225 5.4325 -3.125 4.625 C-2 2 -2 2 0 0 Z " fill="#0B1B37" transform="translate(306,218)"/>
<path d="M0 0 C6.93 0 13.86 0 21 0 C21 1.32 21 2.64 21 4 C20.360625 4.28875 19.72125 4.5775 19.0625 4.875 C16.84793921 5.82823451 16.84793921 5.82823451 16 8 C14.66601578 7.33300789 13.35228056 6.62390484 12.0625 5.875 C9.86905405 4.67608107 9.86905405 4.67608107 7 6 C6.67 6.66 6.34 7.32 6 8 C5.34 8 4.68 8 4 8 C3.67 7.01 3.34 6.02 3 5 C0.99983534 3.79117904 0.99983534 3.79117904 -1 3 C-0.67 2.01 -0.34 1.02 0 0 Z " fill="#0E1A3E" transform="translate(374,210)"/>
<path d="M0 0 C0.02694851 1.95825873 0.04637218 3.91662226 0.0625 5.875 C0.07410156 6.96554688 0.08570313 8.05609375 0.09765625 9.1796875 C0 12 0 12 -1 14 C-3.4932534 13.00269864 -4.77467439 12.34925469 -6.25 10.0625 C-7 8 -7 8 -7 5 C-8.32 4.34 -9.64 3.68 -11 3 C-9.53725191 0.73274047 -8.55376366 -0.74991319 -6.0625 -1.875 C-3.5022183 -2.03016859 -2.22441283 -1.19811797 0 0 Z " fill="#1E274A" transform="translate(351,215)"/>
<path d="M0 0 C2.67848546 2.67848546 2.30504006 4.13970861 2.4140625 7.8828125 C2.45273437 9.04941406 2.49140625 10.21601562 2.53125 11.41796875 C2.5621875 12.64128906 2.593125 13.86460938 2.625 15.125 C2.66367187 16.35605469 2.70234375 17.58710937 2.7421875 18.85546875 C2.8366999 21.90349376 2.92225494 24.95150862 3 28 C2.01 26.68 1.02 25.36 0 24 C-0.33 26.97 -0.66 29.94 -1 33 C-1.66 33 -2.32 33 -3 33 C-2.7394057 28.46065208 -2.47276867 23.9217157 -2.20043945 19.38305664 C-2.10859212 17.83790808 -2.01841863 16.2926591 -1.92993164 14.74731445 C-1.80270699 12.53047826 -1.66953438 10.31406885 -1.53515625 8.09765625 C-1.49656998 7.4028566 -1.4579837 6.70805695 -1.41822815 5.99220276 C-1.11387171 1.11387171 -1.11387171 1.11387171 0 0 Z " fill="#D9746C" transform="translate(305,87)"/>
<path d="M0 0 C3 3.75 3 3.75 3 6 C3.66 6 4.32 6 5 6 C5.33 7.32 5.66 8.64 6 10 C6.99 10 7.98 10 9 10 C9 10.66 9 11.32 9 12 C9.99 12 10.98 12 12 12 C12 13.65 12 15.3 12 17 C10.35 17 8.7 17 7 17 C6.67 16.01 6.34 15.02 6 14 C5.38125 13.87625 4.7625 13.7525 4.125 13.625 C2 13 2 13 0.3125 10.875 C-1.1979489 7.56639765 -1.64657491 4.6049359 -2 1 C-1.34 0.67 -0.68 0.34 0 0 Z " fill="#D1110A" transform="translate(259,146)"/>
<path d="M0 0 C2.33944736 0.28730055 4.6739143 0.61936779 7 1 C7 1.66 7 2.32 7 3 C7.66 3 8.32 3 9 3 C9.33 3.99 9.66 4.98 10 6 C8.824375 6.61875 8.824375 6.61875 7.625 7.25 C4.94108344 9.0392777 4.11901051 10.04988139 3 13 C1.68 12.67 0.36 12.34 -1 12 C-1.02687279 10.18757948 -1.04633715 8.37504767 -1.0625 6.5625 C-1.07410156 5.55316406 -1.08570313 4.54382813 -1.09765625 3.50390625 C-1 1 -1 1 0 0 Z " fill="#0E253B" transform="translate(447,211)"/>
<path d="M0 0 C0 0.99 0 1.98 0 3 C1.98 3 3.96 3 6 3 C6 3.33 6 3.66 6 4 C2.18751655 4.02936502 -1.62493726 4.04692035 -5.4375 4.0625 C-6.50677734 4.07087891 -7.57605469 4.07925781 -8.67773438 4.08789062 C-14.87624228 4.10684631 -20.8549481 3.82063259 -27 3 C-19.71707899 -1.85528068 -8.48212389 -0.10057854 0 0 Z " fill="#C71916" transform="translate(226,196)"/>
<path d="M0 0 C0.33 0 0.66 0 1 0 C0.97381592 0.55985596 0.94763184 1.11971191 0.9206543 1.6965332 C0.81667669 4.23490294 0.7516795 6.77282553 0.6875 9.3125 C0.64560547 10.19357422 0.60371094 11.07464844 0.56054688 11.98242188 C0.51421618 14.4194164 0.51216563 16.61047755 1 19 C3.3769161 21.05363519 3.3769161 21.05363519 6 22 C6 22.66 6 23.32 6 24 C0.61509359 24.91657981 -4.54230189 25.11138159 -10 25 C-10 24.34 -10 23.68 -10 23 C-6.37 23 -2.74 23 1 23 C1 22.34 1 21.68 1 21 C-0.32 20.67 -1.64 20.34 -3 20 C-3.04241723 17.66705225 -3.04092937 15.33297433 -3 13 C-2.67 12.67 -2.34 12.34 -2 12 C-1.79162581 10.17093765 -1.63250341 8.33611866 -1.5 6.5 C-1.11111111 1.11111111 -1.11111111 1.11111111 0 0 Z " fill="#313651" transform="translate(204,247)"/>
<path d="M0 0 C0.66 0 1.32 0 2 0 C2 1.32 2 2.64 2 4 C2.66 4 3.32 4 4 4 C4.33 2.68 4.66 1.36 5 0 C5.92718689 3.08136961 6.14268368 4.61671247 5.00390625 7.67578125 C4.52824219 8.54589844 4.05257813 9.41601562 3.5625 10.3125 C3.08941406 11.19550781 2.61632812 12.07851562 2.12890625 12.98828125 C1.75636719 13.65214844 1.38382812 14.31601563 1 15 C-0.98 14.34 -2.96 13.68 -5 13 C-3.58192622 8.52761347 -1.88695626 4.28853694 0 0 Z " fill="#EA7C5D" transform="translate(324,145)"/>
<path d="M0 0 C0 0.33 0 0.66 0 1 C-2.31 1.33 -4.62 1.66 -7 2 C-7.20625 2.721875 -7.4125 3.44375 -7.625 4.1875 C-9.40814713 7.83484641 -11.8191474 9.51893497 -15 12 C-16.35099103 13.31543863 -17.69205669 14.64175118 -19 16 C-19.99 15.67 -20.98 15.34 -22 15 C-19.15324828 11.60541977 -16.32845827 8.25327381 -13.125 5.1875 C-10.76773811 3.26919324 -10.76773811 3.26919324 -11 1 C-3.375 -1.125 -3.375 -1.125 0 0 Z M-23 16 C-22.34 16.33 -21.68 16.66 -21 17 C-21.99 17.66 -22.98 18.32 -24 19 C-23.67 18.01 -23.34 17.02 -23 16 Z " fill="#D82718" transform="translate(296,160)"/>
<path d="M0 0 C8.20340497 -0.16115537 16.32099618 0.33934671 24.5 0.9375 C26.41039062 1.06801758 26.41039062 1.06801758 28.359375 1.20117188 C29.57109375 1.28818359 30.7828125 1.37519531 32.03125 1.46484375 C33.13017578 1.543396 34.22910156 1.62194824 35.36132812 1.70288086 C38 2 38 2 40 3 C40 3.66 40 4.32 40 5 C33.25 6.125 33.25 6.125 31 5 C31 4.34 31 3.68 31 3 C30.3915625 3.01160156 29.783125 3.02320313 29.15625 3.03515625 C23.27962778 3.09565089 17.42941256 2.94073535 11.5625 2.625 C10.87671875 2.59414307 10.1909375 2.56328613 9.484375 2.53149414 C5.80574437 2.31337021 3.21282182 1.75725279 0 0 Z " fill="#E3937D" transform="translate(390,195)"/>
<path d="M0 0 C4.95 1.98 4.95 1.98 10 4 C9 8 9 8 7.234375 9.3984375 C5 10 5 10 2.640625 9.1015625 C1.85171875 8.61429688 1.0628125 8.12703125 0.25 7.625 C-0.54921875 7.14289063 -1.3484375 6.66078125 -2.171875 6.1640625 C-2.77515625 5.77992188 -3.3784375 5.39578125 -4 5 C-2.68 4.34 -1.36 3.68 0 3 C0 2.01 0 1.02 0 0 Z " fill="#E4726B" transform="translate(253,171)"/>
<path d="M0 0 C0.33 0 0.66 0 1 0 C0.99476318 0.68102783 0.98952637 1.36205566 0.98413086 2.0637207 C0.96335542 5.14663777 0.95033802 8.2295401 0.9375 11.3125 C0.92912109 12.38435547 0.92074219 13.45621094 0.91210938 14.56054688 C0.90727539 16.10258789 0.90727539 16.10258789 0.90234375 17.67578125 C0.89448853 19.0975769 0.89448853 19.0975769 0.88647461 20.5480957 C0.89501146 23.13838681 0.89501146 23.13838681 2 26 C2.08266486 27.91906917 2.10740663 29.84089474 2.09765625 31.76171875 C2.09443359 32.87998047 2.09121094 33.99824219 2.08789062 35.15039062 C2.07951172 36.31763672 2.07113281 37.48488281 2.0625 38.6875 C2.05798828 39.86634766 2.05347656 41.04519531 2.04882812 42.25976562 C2.03703273 45.17322789 2.0205727 48.08658863 2 51 C1.34 51 0.68 51 0 51 C-0.33 42.42 -0.66 33.84 -1 25 C-1.99 24.67 -2.98 24.34 -4 24 C-4 23.34 -4 22.68 -4 22 C-3.34 22 -2.68 22 -2 22 C-1.09166031 19.27498092 -0.81640015 17.37766029 -0.68359375 14.55078125 C-0.64169922 13.70322266 -0.59980469 12.85566406 -0.55664062 11.98242188 C-0.51732422 11.10134766 -0.47800781 10.22027344 -0.4375 9.3125 C-0.39431641 8.41982422 -0.35113281 7.52714844 -0.30664062 6.60742188 C-0.20064647 4.40509892 -0.09857949 2.20266527 0 0 Z " fill="#141F36" transform="translate(415,216)"/>
<path d="M0 0 C0.89589844 0.00322266 1.79179687 0.00644531 2.71484375 0.00976562 C4.12056641 0.02233398 4.12056641 0.02233398 5.5546875 0.03515625 C6.49957031 0.03966797 7.44445312 0.04417969 8.41796875 0.04882812 C10.75527137 0.06063268 13.09244811 0.07709866 15.4296875 0.09765625 C15.4296875 1.41765625 15.4296875 2.73765625 15.4296875 4.09765625 C14.4396875 4.09765625 13.4496875 4.09765625 12.4296875 4.09765625 C12.0996875 3.43765625 11.7696875 2.77765625 11.4296875 2.09765625 C8.15413142 1.62764592 8.15413142 1.62764592 4.3671875 1.47265625 C2.43166016 1.36050781 2.43166016 1.36050781 0.45703125 1.24609375 C-1.04150391 1.17261719 -1.04150391 1.17261719 -2.5703125 1.09765625 C-2.24434082 1.65936523 -1.91836914 2.22107422 -1.58251953 2.79980469 C-0.45019219 5.37034616 -0.33917628 7.06903144 -0.375 9.86328125 C-0.38144531 10.75273437 -0.38789063 11.6421875 -0.39453125 12.55859375 C-0.41128906 13.47898438 -0.42804688 14.399375 -0.4453125 15.34765625 C-0.45433594 16.28351563 -0.46335937 17.219375 -0.47265625 18.18359375 C-0.49617614 20.48854282 -0.52904397 22.79296785 -0.5703125 25.09765625 C-0.9003125 25.09765625 -1.2303125 25.09765625 -1.5703125 25.09765625 C-1.9003125 18.16765625 -2.2303125 11.23765625 -2.5703125 4.09765625 C-3.8903125 3.76765625 -5.2103125 3.43765625 -6.5703125 3.09765625 C-6.5703125 2.43765625 -6.5703125 1.77765625 -6.5703125 1.09765625 C-4.16971433 -0.10264283 -2.67670601 -0.01694118 0 0 Z " fill="#85878E" transform="translate(415.5703125,209.90234375)"/>
<path d="M0 0 C3 1 3 1 4.82421875 4.08984375 C5.45565368 5.3673363 6.07636944 6.6501707 6.6875 7.9375 C7.00783203 8.58396484 7.32816406 9.23042969 7.65820312 9.89648438 C10 14.70490738 10 14.70490738 10 17 C9.34 17 8.68 17 8 17 C8 16.34 8 15.68 8 15 C7.34 15 6.68 15 6 15 C5.67 15.99 5.34 16.98 5 18 C4.70996094 17.11248047 4.70996094 17.11248047 4.4140625 16.20703125 C2.7491571 11.1472778 2.7491571 11.1472778 0.8125 6.1875 C0 4 0 4 0 0 Z " fill="#D76358" transform="translate(273,122)"/>
<path d="M0 0 C0.78375 0.639375 1.5675 1.27875 2.375 1.9375 C4.79539281 3.98142313 4.79539281 3.98142313 7 5 C7 5.66 7 6.32 7 7 C-0.57515273 8.12224485 -8.50042814 8.99988583 -16 7 C-16 6.34 -16 5.68 -16 5 C-14.68 4.34 -13.36 3.68 -12 3 C-12 3.99 -12 4.98 -12 6 C-11.01 6 -10.02 6 -9 6 C-8.67 5.34 -8.34 4.68 -8 4 C-7.67 4.33 -7.34 4.66 -7 5 C-5.33382885 5.04063832 -3.66611905 5.042721 -2 5 C-1.34 3.35 -0.68 1.7 0 0 Z " fill="#3F4757" transform="translate(389,264)"/>
<path d="M0 0 C0.33 0 0.66 0 1 0 C1 4.62 1 9.24 1 14 C1.66 14 2.32 14 3 14 C3 13.34 3 12.68 3 12 C3.66 12 4.32 12 5 12 C6.0070238 17.03511899 5.97387813 20.23947038 4 25 C3.01 24.67 2.02 24.34 1 24 C0.09516363 18.63510405 -0.12303662 13.49682543 -0.0625 8.0625 C-0.05798828 7.28326172 -0.05347656 6.50402344 -0.04882812 5.70117188 C-0.03716908 3.80074732 -0.01923877 1.90036294 0 0 Z " fill="#F16B56" transform="translate(302,121)"/>
<path d="M0 0 C0.99 0.33 1.98 0.66 3 1 C1.70935753 6.04523873 -0.26080805 8.45256149 -4 12 C-4.33 12.99 -4.66 13.98 -5 15 C-3.68 15.33 -2.36 15.66 -1 16 C-3.31 16 -5.62 16 -8 16 C-7.67 14.02 -7.34 12.04 -7 10 C-6.34 10 -5.68 10 -5 10 C-4.731875 9.278125 -4.46375 8.55625 -4.1875 7.8125 C-3.01017502 5.02409874 -1.60854116 2.55904276 0 0 Z " fill="#E52A23" transform="translate(269,183)"/>
<path d="M0 0 C0 0.66 0 1.32 0 2 C0.66 2.33 1.32 2.66 2 3 C2 4.65 2 6.3 2 8 C-3.28 8 -8.56 8 -14 8 C-14.33 7.34 -14.66 6.68 -15 6 C-10.545 5.505 -10.545 5.505 -6 5 C-6.66 4.34 -7.32 3.68 -8 3 C-2.25 0 -2.25 0 0 0 Z " fill="#444E64" transform="translate(153,264)"/>
<path d="M0 0 C0.66 0 1.32 0 2 0 C2.02894547 3.45831586 2.04678 6.91660072 2.0625 10.375 C2.07087891 11.35984375 2.07925781 12.3446875 2.08789062 13.359375 C2.09111328 14.30039063 2.09433594 15.24140625 2.09765625 16.2109375 C2.10289307 17.08024902 2.10812988 17.94956055 2.11352539 18.84521484 C2 21 2 21 1 23 C0.01 22.67 -0.98 22.34 -2 22 C-1.7525 20.4221875 -1.7525 20.4221875 -1.5 18.8125 C-0.84580603 13.76066882 -0.96909615 8.74482836 -1.0625 3.66015625 C-1 1 -1 1 0 0 Z " fill="#373D53" transform="translate(203,218)"/>
<path d="M0 0 C0.33 0.99 0.66 1.98 1 3 C2.45880109 2.85892253 3.91703551 2.71197585 5.375 2.5625 C6.18710938 2.48128906 6.99921875 2.40007812 7.8359375 2.31640625 C10.04272805 2.10909886 10.04272805 2.10909886 12 1 C10.25 4.875 10.25 4.875 8 6 C8.99 6.99 9.98 7.98 11 9 C9.37509046 9.02698189 7.75005367 9.04638757 6.125 9.0625 C4.76761719 9.07990234 4.76761719 9.07990234 3.3828125 9.09765625 C1 9 1 9 -1 8 C-0.67 5.36 -0.34 2.72 0 0 Z " fill="#2A334C" transform="translate(137,233)"/>
<path d="M0 0 C0 5 0 5 -1.375 6.625 C-3 8 -3 8 -5 8 C-5.33 8.99 -5.66 9.98 -6 11 C-8.97 11 -11.94 11 -15 11 C-15 10.34 -15 9.68 -15 9 C-15.66 9 -16.32 9 -17 9 C-17 8.34 -17 7.68 -17 7 C-12.71 7 -8.42 7 -4 7 C-3.34 5.35 -2.68 3.7 -2 2 C-1.34 1.34 -0.68 0.68 0 0 Z " fill="#E64A45" transform="translate(262,185)"/>
<path d="M0 0 C0.66 -0.33 1.32 -0.66 2 -1 C2.99 2.3 3.98 5.6 5 9 C4.01 9.33 3.02 9.66 2 10 C2 9.34 2 8.68 2 8 C-0.97 7.505 -0.97 7.505 -4 7 C-3.34 6.67 -2.68 6.34 -2 6 C-2.33 5.67 -2.66 5.34 -3 5 C-4.33827304 3.33729713 -5.67189785 1.67083819 -7 0 C-4.33059475 -1.33470263 -2.86667247 -0.57333449 0 0 Z " fill="#08122E" transform="translate(220,239)"/>
<path d="M0 0 C6.93 0 13.86 0 21 0 C21 1.32 21 2.64 21 4 C19.68 4.33 18.36 4.66 17 5 C16.67 4.34 16.34 3.68 16 3 C13.64400765 2.53248212 13.64400765 2.53248212 10.9375 2.375 C10.01839844 2.30023438 9.09929687 2.22546875 8.15234375 2.1484375 C7.44207031 2.09945312 6.73179687 2.05046875 6 2 C5.67 3.65 5.34 5.3 5 7 C3.02 5.68 1.04 4.36 -1 3 C-0.67 2.01 -0.34 1.02 0 0 Z " fill="#DE7265" transform="translate(258,210)"/>
<path d="M0 0 C-7.44035459 4.96023639 -17.00320341 4.26118877 -25.625 4.125 C-27.27435547 4.11146484 -27.27435547 4.11146484 -28.95703125 4.09765625 C-31.63825758 4.07434124 -34.31900607 4.0416204 -37 4 C-37 3.67 -37 3.34 -37 3 C-31.61328527 1.84440819 -26.23171619 1.4076599 -20.75 0.9375 C-19.75097656 0.84662109 -18.75195312 0.75574219 -17.72265625 0.66210938 C-11.78882521 0.14629269 -5.95582226 -0.09267358 0 0 Z " fill="#D3534C" transform="translate(239,193)"/>
<path d="M0 0 C2.7084017 -0.02714434 5.41652721 -0.04690846 8.125 -0.0625 C8.88554687 -0.07087891 9.64609375 -0.07925781 10.4296875 -0.08789062 C14.7389644 -0.10646509 18.75516474 0.13882735 23 1 C23 1.33 23 1.66 23 2 C21.741875 2.185625 20.48375 2.37125 19.1875 2.5625 C18.12595703 2.71912109 18.12595703 2.71912109 17.04296875 2.87890625 C15 3 15 3 12 2 C12 2.66 12 3.32 12 4 C9.69 4.33 7.38 4.66 5 5 C5 4.34 5 3.68 5 3 C4.34 3 3.68 3 3 3 C3 2.34 3 1.68 3 1 C2.01 0.67 1.02 0.34 0 0 Z " fill="#131F36" transform="translate(451,211)"/>
<path d="M0 0 C-0.59228119 3.2539786 -1.61238443 5.04923835 -3.8125 7.5 C-4.34746094 8.09941406 -4.88242187 8.69882813 -5.43359375 9.31640625 C-7.24264913 11.26080243 -9.08549809 13.15913278 -11 15 C-10.67 13.35 -10.34 11.7 -10 10 C-10.66 9.67 -11.32 9.34 -12 9 C-11.0479279 7.99403703 -10.08812654 6.99538437 -9.125 6 C-8.32449219 5.1646875 -8.32449219 5.1646875 -7.5078125 4.3125 C-6 3 -6 3 -4 3 C-4 2.34 -4 1.68 -4 1 C-2 0 -2 0 0 0 Z " fill="#E98266" transform="translate(378,120)"/>
<path d="M0 0 C0.721875 0.103125 1.44375 0.20625 2.1875 0.3125 C2.8475 1.6325 3.5075 2.9525 4.1875 4.3125 C3.1975 4.6425 2.2075 4.9725 1.1875 5.3125 C0.8575 6.3025 0.5275 7.2925 0.1875 8.3125 C-3.18712715 7.76526317 -4.89485 7.2576 -7.8125 5.3125 C-3.50480769 0.38942308 -3.50480769 0.38942308 0 0 Z " fill="#071530" transform="translate(151.8125,233.6875)"/>
<path d="M0 0 C0.66 0.33 1.32 0.66 2 1 C0.125 6.75 0.125 6.75 -1 9 C-4.63 9 -8.26 9 -12 9 C-12 8.01 -12 7.02 -12 6 C-8.92382812 5.70703125 -8.92382812 5.70703125 -5.84765625 5.4140625 C-5.23792969 5.27742187 -4.62820312 5.14078125 -4 5 C-3.67 4.34 -3.34 3.68 -3 3 C-2.34 3 -1.68 3 -1 3 C-0.67 2.01 -0.34 1.02 0 0 Z " fill="#E83D37" transform="translate(260,190)"/>
<path d="M0 0 C0.33 0 0.66 0 1 0 C1.31199371 4.57590769 0.91247585 6.50502897 -2 10 C-2.70514846 12.14733927 -2.70514846 12.14733927 -3 14 C-4.32 14 -5.64 14 -7 14 C-7 11.36 -7 8.72 -7 6 C-6.21625 5.7525 -5.4325 5.505 -4.625 5.25 C-1.67682892 3.84610901 -1.0975223 2.99324263 0 0 Z " fill="#F74E1C" transform="translate(347,151)"/>
<path d="M0 0 C6.93 0 13.86 0 21 0 C21 1.32 21 2.64 21 4 C20.01 4 19.02 4 18 4 C18 3.01 18 2.02 18 1 C11.565 1.495 11.565 1.495 5 2 C4.67 3.32 4.34 4.64 4 6 C2.35 5.01 0.7 4.02 -1 3 C-0.67 2.01 -0.34 1.02 0 0 Z " fill="#4F5E6F" transform="translate(374,210)"/>
<path d="M0 0 C2.57945213 2.9954928 4.17360993 5.14351301 5 9 C5.66 9.33 6.32 9.66 7 10 C6.67 10.99 6.34 11.98 6 13 C5.34 12.67 4.68 12.34 4 12 C3.01 12.33 2.02 12.66 1 13 C1 12.34 1 11.68 1 11 C0.34 11 -0.32 11 -1 11 C-1.02688151 9.35425434 -1.04634123 7.70838587 -1.0625 6.0625 C-1.07410156 5.14597656 -1.08570313 4.22945312 -1.09765625 3.28515625 C-1 1 -1 1 0 0 Z " fill="#FA5218" transform="translate(345,179)"/>
<path d="M0 0 C2.64 0 5.28 0 8 0 C8.66 1.32 9.32 2.64 10 4 C5.69230769 7.07692308 5.69230769 7.07692308 2.1875 6.6875 C1.465625 6.460625 0.74375 6.23375 0 6 C0 4.02 0 2.04 0 0 Z " fill="#0A193A" transform="translate(153,264)"/>
<path d="M0 0 C0.99 0.33 1.98 0.66 3 1 C3 1.99 3 2.98 3 4 C6.63 4.33 10.26 4.66 14 5 C14 5.33 14 5.66 14 6 C10.16275828 6.90413673 6.62497726 7.10576898 2.6875 7.0625 C1.61886719 7.05347656 0.55023438 7.04445313 -0.55078125 7.03515625 C-1.35902344 7.02355469 -2.16726562 7.01195312 -3 7 C-3.33 6.01 -3.66 5.02 -4 4 C-3.01 4 -2.02 4 -1 4 C-0.67 2.68 -0.34 1.36 0 0 Z " fill="#535E6E" transform="translate(123,265)"/>
<path d="M0 0 C0.33 0 0.66 0 1 0 C1.13510253 2.91821463 1.2341305 5.83017652 1.3125 8.75 C1.3753418 9.9875 1.3753418 9.9875 1.43945312 11.25 C1.48686732 13.601744 1.47157594 15.69402157 1 18 C-1.51953125 20.578125 -1.51953125 20.578125 -4 22 C-3.34 22.66 -2.68 23.32 -2 24 C-3.32 24 -4.64 24 -6 24 C-6 23.01 -6 22.02 -6 21 C-6.66 21 -7.32 21 -8 21 C-8 20.01 -8 19.02 -8 18 C-7.21625 17.855625 -6.4325 17.71125 -5.625 17.5625 C-3.03578982 17.12201075 -3.03578982 17.12201075 -1 16 C-0.68758545 13.28553021 -0.48663408 10.66090639 -0.375 7.9375 C-0.33632813 7.17888672 -0.29765625 6.42027344 -0.2578125 5.63867188 C-0.16326438 3.75952805 -0.08053244 1.87979664 0 0 Z " fill="#444E5D" transform="translate(340,248)"/>
<path d="M0 0 C4.98121006 1.66040335 7.3499155 3.15261363 11 7 C9.02 7.99 9.02 7.99 7 9 C6.34 8.01 5.68 7.02 5 6 C3.00043389 5.95834237 0.99956611 5.95834237 -1 6 C-1.66 5.34 -2.32 4.68 -3 4 C-2.01 2.68 -1.02 1.36 0 0 Z " fill="#1B284C" transform="translate(156,259)"/>
<path d="M0 0 C3.3 0.99 6.6 1.98 10 3 C8.02 3.99 8.02 3.99 6 5 C5.34 5.66 4.68 6.32 4 7 C0.875 6.625 0.875 6.625 -2 6 C-2.33 4.68 -2.66 3.36 -3 2 C-2.01 2 -1.02 2 0 2 C0 1.34 0 0.68 0 0 Z " fill="#0C1B31" transform="translate(337,210)"/>
<path d="M0 0 C0 0.99 0 1.98 0 3 C-1.98 3.33 -3.96 3.66 -6 4 C-6 4.99 -6 5.98 -6 7 C-4.35 7 -2.7 7 -1 7 C-1 6.34 -1 5.68 -1 5 C0.32 5.33 1.64 5.66 3 6 C-1.48017304 8.92934391 -1.48017304 8.92934391 -4 10 C-6.375 9.5 -6.375 9.5 -8 8 C-8.33 6.68 -8.66 5.36 -9 4 C-6.03 2.68 -3.06 1.36 0 0 Z " fill="#E88A64" transform="translate(357,171)"/>
<path d="M0 0 C0.33 0 0.66 0 1 0 C1.2475 1.11375 1.495 2.2275 1.75 3.375 C2.61005339 7.04615198 2.61005339 7.04615198 5.125 8.4375 C5.74375 8.623125 6.3625 8.80875 7 9 C7 9.66 7 10.32 7 11 C3.45325997 12.18224668 1.02477005 11.89329634 -2.6875 11.5625 C-3.86699219 11.46066406 -5.04648437 11.35882813 -6.26171875 11.25390625 C-7.16535156 11.17011719 -8.06898438 11.08632813 -9 11 C-9 10.67 -9 10.34 -9 10 C-5.535 9.505 -5.535 9.505 -2 9 C-1.34 6.03 -0.68 3.06 0 0 Z " fill="#1E2745" transform="translate(476,260)"/>
<path d="M0 0 C2.31 0 4.62 0 7 0 C7.33 1.98 7.66 3.96 8 6 C6.3125 6.75 6.3125 6.75 4 7 C1.25 5.0625 1.25 5.0625 -1 3 C-0.67 2.01 -0.34 1.02 0 0 Z " fill="#2A465A" transform="translate(120,209)"/>
<path d="M0 0 C2.31 0.33 4.62 0.66 7 1 C6.01 2.98 5.02 4.96 4 7 C0.7 6.34 -2.6 5.68 -6 5 C-2 2 -2 2 0 2 C0 1.34 0 0.68 0 0 Z " fill="#252F4D" transform="translate(213,210)"/>
<path d="M0 0 C-3.12621626 3.39417765 -5.56541027 5.6062718 -10 7 C-10 6.34 -10 5.68 -10 5 C-12.31 5.33 -14.62 5.66 -17 6 C-11.97470313 2.64980209 -6.22982527 -0.80384842 0 0 Z " fill="#E88D6A" transform="translate(388,160)"/>
<path d="M0 0 C2.50298434 2.93828597 3.46930939 5.17902761 4 9 C3.360625 9.12375 2.72125 9.2475 2.0625 9.375 C1.381875 9.58125 0.70125 9.7875 0 10 C-0.33 10.66 -0.66 11.32 -1 12 C-2.42944945 9.64561267 -3.08661261 8.51967567 -2.625 5.75 C-2.41875 5.1725 -2.2125 4.595 -2 4 C-1.34 4 -0.68 4 0 4 C0 2.68 0 1.36 0 0 Z " fill="#E77567" transform="translate(287,149)"/>
<path d="M0 0 C0.78375 0.04125 1.5675 0.0825 2.375 0.125 C2.41754356 2.12454746 2.41580783 4.12541636 2.375 6.125 C1.375 7.125 1.375 7.125 -1.6875 7.1875 C-3.1415625 7.1565625 -3.1415625 7.1565625 -4.625 7.125 C-4.75 4.75 -4.75 4.75 -4.625 2.125 C-2.625 0.125 -2.625 0.125 0 0 Z " fill="#FE7E6A" transform="translate(305.625,148.875)"/>
<path d="M0 0 C0.33 0 0.66 0 1 0 C1 7.92 1 15.84 1 24 C0.67 24 0.34 24 0 24 C0 22.02 0 20.04 0 18 C-0.66 18 -1.32 18 -2 18 C-2 18.66 -2 19.32 -2 20 C-2.66 20 -3.32 20 -4 20 C-4 17.36 -4 14.72 -4 12 C-3.01 12.99 -2.02 13.98 -1 15 C-0.67 10.05 -0.34 5.1 0 0 Z " fill="#DC4A37" transform="translate(307,115)"/>
<path d="M0 0 C5.41390868 0.46671627 9.20517932 1.24297811 14 4 C13.01 4.99 12.02 5.98 11 7 C6.00724943 5.72278474 3.42388092 3.82669043 0 0 Z " fill="#D36B6B" transform="translate(223,160)"/>
<path d="M0 0 C2.31 0.33 4.62 0.66 7 1 C7 1.66 7 2.32 7 3 C7.66 3 8.32 3 9 3 C9.33 3.99 9.66 4.98 10 6 C5.25 9 5.25 9 3 9 C3 7.68 3 6.36 3 5 C2.34 4.34 1.68 3.68 1 3 C1.33 2.34 1.66 1.68 2 1 C1.34 0.67 0.68 0.34 0 0 Z " fill="#1E364D" transform="translate(447,211)"/>
<path d="M0 0 C1.70840281 1.63412443 2.93453047 2.86906094 4 5 C4.98731742 6.34275169 5.98594743 7.67732273 7 9 C3.25 10.125 3.25 10.125 1 9 C1 8.34 1 7.68 1 7 C0.01 6.67 -0.98 6.34 -2 6 C-1.125 1.125 -1.125 1.125 0 0 Z " fill="#091833" transform="translate(298,235)"/>
<path d="M0 0 C1.67542976 0.28604898 3.34385343 0.61781233 5 1 C5.33 1.99 5.66 2.98 6 4 C5.01 4.66 4.02 5.32 3 6 C2.67 6.66 2.34 7.32 2 8 C0.35 7.67 -1.3 7.34 -3 7 C-1.125 1.125 -1.125 1.125 0 0 Z " fill="#07172F" transform="translate(220,211)"/>
<path d="M0 0 C3.9252025 3.70090521 6.94580156 7.54959656 10 12 C9.67 12.66 9.34 13.32 9 14 C7.62437146 12.71034824 6.29233607 11.37310707 5 10 C5 9.34 5 8.68 5 8 C3.68 7.67 2.36 7.34 1 7 C0.67 4.69 0.34 2.38 0 0 Z " fill="#EF825E" transform="translate(341,171)"/>
<path d="M0 0 C7.42857143 -0.28571429 7.42857143 -0.28571429 11 2 C10.67 3.32 10.34 4.64 10 6 C6.68437443 5.44739574 3.84937793 4.83174295 1 3 C0.67 2.01 0.34 1.02 0 0 Z " fill="#C23935" transform="translate(233,165)"/>
<path d="M0 0 C0.66 0 1.32 0 2 0 C1.35812082 5.13503344 0.31727753 9.9943454 -1 15 C-1.28875 14.360625 -1.5775 13.72125 -1.875 13.0625 C-2.82823451 10.84793921 -2.82823451 10.84793921 -5 10 C-3.35 6.7 -1.7 3.4 0 0 Z " fill="#DF846D" transform="translate(335,122)"/>
<path d="M0 0 C0.33 0 0.66 0 1 0 C1.23737365 8.91469911 0.79362465 17.25607982 -1 26 C-1.66 26 -2.32 26 -3 26 C-2.67 20.72 -2.34 15.44 -2 10 C-1.34 10 -0.68 10 0 10 C0 6.7 0 3.4 0 0 Z " fill="#D55145" transform="translate(305,94)"/>
<path d="M0 0 C2.31 0.33 4.62 0.66 7 1 C7 5 7 5 5 8 C4.01 8 3.02 8 2 8 C0.23537317 4.91190305 0 3.76687864 0 0 Z " fill="#FB4C12" transform="translate(328,166)"/>
<path d="M0 0 C0 0.33 0 0.66 0 1 C-2.77050026 1.1946838 -5.54113002 1.38102792 -8.3125 1.5625 C-9.09818359 1.61857422 -9.88386719 1.67464844 -10.69335938 1.73242188 C-11.8293457 1.80493164 -11.8293457 1.80493164 -12.98828125 1.87890625 C-13.68477783 1.9260376 -14.38127441 1.97316895 -15.09887695 2.02172852 C-17 2 -17 2 -20 1 C-6.22222222 -3.30555556 -6.22222222 -3.30555556 0 0 Z " fill="#D94C39" transform="translate(310,158)"/>
<path d="M0 0 C3.465 1.485 3.465 1.485 7 3 C7 3.66 7 4.32 7 5 C1.61509359 5.91657981 -3.54230189 6.11138159 -9 6 C-9 5.34 -9 4.68 -9 4 C-5.37 4 -1.74 4 2 4 C2 3.34 2 2.68 2 2 C1.34 2 0.68 2 0 2 C0 1.34 0 0.68 0 0 Z " fill="#5D6170" transform="translate(203,266)"/>
<path d="M0 0 C5.28 0 10.56 0 16 0 C16.33 0.99 16.66 1.98 17 3 C16.01 3.495 16.01 3.495 15 4 C14.34 3.67 13.68 3.34 13 3 C10.795636 2.77049681 8.58607827 2.58924067 6.375 2.4375 C5.18648437 2.35371094 3.99796875 2.26992187 2.7734375 2.18359375 C1.40058594 2.09271484 1.40058594 2.09271484 0 2 C0 1.34 0 0.68 0 0 Z " fill="#505666" transform="translate(128,209)"/>
<path d="M0 0 C0.99 0 1.98 0 3 0 C3.33 0.99 3.66 1.98 4 3 C3.67 3.66 3.34 4.32 3 5 C1.35 5 -0.3 5 -2 5 C-2 5.66 -2 6.32 -2 7 C-3.65 7 -5.3 7 -7 7 C-7 6.01 -7 5.02 -7 4 C-6.030625 3.71125 -5.06125 3.4225 -4.0625 3.125 C-0.89335797 2.35785318 -0.89335797 2.35785318 0 0 Z " fill="#F35F2E" transform="translate(358,171)"/>
<path d="M0 0 C4.6561838 -0.21196588 8.37250673 0.48464782 12.8125 1.875 C13.95332031 2.22304687 15.09414063 2.57109375 16.26953125 2.9296875 C19 4 19 4 20 6 C14.8640538 6.37580094 11.64184454 5.1173326 7 3 C4.68143356 2.25280574 2.35579847 1.62500776 0 1 C0 0.67 0 0.34 0 0 Z " fill="#EA775C" transform="translate(309,157)"/>
<path d="M0 0 C2.475 0.99 2.475 0.99 5 2 C2 4 2 4 0 4 C-0.33 4.99 -0.66 5.98 -1 7 C-3.31 6.01 -5.62 5.02 -8 4 C-5.35261084 2.5393715 -4.10551666 2 -1 2 C-0.67 1.34 -0.34 0.68 0 0 Z " fill="#293F59" transform="translate(317,263)"/>
<path d="M0 0 C0 0.66 0 1.32 0 2 C-0.66 2 -1.32 2 -2 2 C-2.33 3.65 -2.66 5.3 -3 7 C-4.32 7.33 -5.64 7.66 -7 8 C-7.125 2.25 -7.125 2.25 -6 0 C-3 -1 -3 -1 0 0 Z " fill="#091637" transform="translate(163,240)"/>
<path d="M0 0 C0.99 0.33 1.98 0.66 3 1 C3 2.65 3 4.3 3 6 C3.99 6.33 4.98 6.66 6 7 C5.01 7 4.02 7 3 7 C3 7.66 3 8.32 3 9 C3.99 9.33 4.98 9.66 6 10 C5.34 10.66 4.68 11.32 4 12 C4 11.34 4 10.68 4 10 C3.34 10 2.68 10 2 10 C1.67 8.35 1.34 6.7 1 5 C-0.65 4.67 -2.3 4.34 -4 4 C-2.68 2.68 -1.36 1.36 0 0 Z " fill="#283C5A" transform="translate(153,239)"/>
<path d="M0 0 C1.65 0 3.3 0 5 0 C4.814375 0.61875 4.62875 1.2375 4.4375 1.875 C3.76313824 4.04160178 3.76313824 4.04160178 5 6 C5.66 6 6.32 6 7 6 C6.67 6.99 6.34 7.98 6 9 C5.236875 8.525625 4.47375 8.05125 3.6875 7.5625 C1.03589452 5.89893903 1.03589452 5.89893903 -2 5 C-1.67 4.34 -1.34 3.68 -1 3 C-0.67 2.01 -0.34 1.02 0 0 Z " fill="#2B394F" transform="translate(144,209)"/>
<path d="M0 0 C3.79588866 0.54226981 5.47211993 2.20127563 8 5 C7.67 5.66 7.34 6.32 7 7 C5.68 7 4.36 7 3 7 C0.58152803 4.49515403 0 3.53986194 0 0 Z " fill="#D17372" transform="translate(233,120)"/>
<path d="M0 0 C2.33046701 3.6413547 2.30891093 6.7524747 2 11 C1.01 12.485 1.01 12.485 0 14 C-0.99 13.34 -1.98 12.68 -3 12 C-2.34 12 -1.68 12 -1 12 C-1.01160156 11.38511719 -1.02320313 10.77023438 -1.03515625 10.13671875 C-1.04417969 9.32847656 -1.05320312 8.52023438 -1.0625 7.6875 C-1.07410156 6.88699219 -1.08570313 6.08648437 -1.09765625 5.26171875 C-1 3 -1 3 0 0 Z " fill="#D82D17" transform="translate(305,108)"/>
<path d="M0 0 C0.66 1.32 1.32 2.64 2 4 C0.68 5.65 -0.64 7.3 -2 9 C-3.32 8.67 -4.64 8.34 -6 8 C-5.34 8 -4.68 8 -4 8 C-4 6.02 -4 4.04 -4 2 C-2.68 2 -1.36 2 0 2 C0 1.34 0 0.68 0 0 Z " fill="#0A1632" transform="translate(231,231)"/>
<path d="M0 0 C5.875 2.75 5.875 2.75 7 5 C4.525 6.485 4.525 6.485 2 8 C2 7.01 2 6.02 2 5 C0.68 4.67 -0.64 4.34 -2 4 C-1.34 2.68 -0.68 1.36 0 0 Z " fill="#091737" transform="translate(149,210)"/>
<path d="M0 0 C2 3 2 3 1.625 5.1875 C1.41875 5.785625 1.2125 6.38375 1 7 C0.34 7 -0.32 7 -1 7 C-1 7.66 -1 8.32 -1 9 C-0.01 9.33 0.98 9.66 2 10 C0.02 10 -1.96 10 -4 10 C-4 8.68 -4 7.36 -4 6 C-3.01 5.34 -2.02 4.68 -1 4 C-0.27617533 1.94074861 -0.27617533 1.94074861 0 0 Z " fill="#6A6E7D" transform="translate(465,262)"/>
<path d="M0 0 C0.99 0.33 1.98 0.66 3 1 C2.814375 1.9075 2.62875 2.815 2.4375 3.75 C2.04265379 6.68314324 2.05308428 8.2644657 3 11 C2.01 11 1.02 11 0 11 C-1.44262295 2.8852459 -1.44262295 2.8852459 0 0 Z " fill="#0A1A36" transform="translate(346,215)"/>
<path d="M0 0 C5.75 -0.125 5.75 -0.125 8 1 C8 1.99 8 2.98 8 4 C5.33333333 4.66666667 2.66666667 5.33333333 0 6 C0 4.02 0 2.04 0 0 Z " fill="#F74318" transform="translate(320,162)"/>
<path d="M0 0 C0.99 0.495 0.99 0.495 2 1 C2 1.66 2 2.32 2 3 C2.99 3.33 3.98 3.66 5 4 C10 9.46511628 10 9.46511628 10 12 C9.34 12 8.68 12 8 12 C8 11.34 8 10.68 8 10 C7.01 10 6.02 10 5 10 C4.67 8.68 4.34 7.36 4 6 C3.34 6 2.68 6 2 6 C1.34 4.02 0.68 2.04 0 0 Z " fill="#D14F4A" transform="translate(260,146)"/>
<path d="M0 0 C1.67542976 0.28604898 3.34385343 0.61781233 5 1 C5.33 2.65 5.66 4.3 6 6 C3.66666667 6 1.33333333 6 -1 6 C-1.042721 4.33388095 -1.04063832 2.66617115 -1 1 C-0.67 0.67 -0.34 0.34 0 0 Z " fill="#041233" transform="translate(160,217)"/>
<path d="M0 0 C0.33 0.66 0.66 1.32 1 2 C1.66 2 2.32 2 3 2 C3.33 3.65 3.66 5.3 4 7 C3.01 7 2.02 7 1 7 C0.67 6.01 0.34 5.02 0 4 C-2.64 3.67 -5.28 3.34 -8 3 C-5.08235 1.0549 -3.37462715 0.54723683 0 0 Z " fill="#D22723" transform="translate(244,192)"/>
<path d="M0 0 C-0.99 0.495 -0.99 0.495 -2 1 C-2 1.99 -2 2.98 -2 4 C-3.98 4.33 -5.96 4.66 -8 5 C-8.33 4.34 -8.66 3.68 -9 3 C-6.38997624 -0.48003168 -4.1689578 -0.27793052 0 0 Z " fill="#07122C" transform="translate(325,266)"/>
<path d="M0 0 C0.66 0 1.32 0 2 0 C2.33 0.99 2.66 1.98 3 3 C2.34 3 1.68 3 1 3 C0.67 3.66 0.34 4.32 0 5 C-0.5625 3.0625 -0.5625 3.0625 -1 1 C-0.67 0.67 -0.34 0.34 0 0 Z M-3 2 C-2.34 2.99 -1.68 3.98 -1 5 C-1.99 5 -2.98 5 -4 5 C-3.67 5.99 -3.34 6.98 -3 8 C-4.32 7.67 -5.64 7.34 -7 7 C-6 4 -6 4 -3 2 Z " fill="#04122E" transform="translate(225,254)"/>
<path d="M0 0 C0.66 0 1.32 0 2 0 C1.67 1.65 1.34 3.3 1 5 C1.66 5.33 2.32 5.66 3 6 C3.625 9.0625 3.625 9.0625 4 12 C3.34 11.67 2.68 11.34 2 11 C1.87625 10.195625 1.7525 9.39125 1.625 8.5625 C1.27432836 5.84016601 1.27432836 5.84016601 -1.0625 4.6875 C-1.701875 4.460625 -2.34125 4.23375 -3 4 C-1.625 2 -1.625 2 0 0 Z " fill="#27385A" transform="translate(343,214)"/>
<path d="M0 0 C-0.33 1.32 -0.66 2.64 -1 4 C-3.31 3.67 -5.62 3.34 -8 3 C-7.67 2.01 -7.34 1.02 -7 0 C-3.86650268 -1.04449911 -3.01031744 -0.93423645 0 0 Z " fill="#0B1438" transform="translate(333,210)"/>
<path d="M0 0 C2.16874252 0.50603992 3.99967627 0.99983813 6 2 C6 2.66 6 3.32 6 4 C2.85069107 5.04976964 0.61185544 5.10131595 -2.6875 5.0625 C-3.68136719 5.05347656 -4.67523438 5.04445313 -5.69921875 5.03515625 C-6.83810547 5.01775391 -6.83810547 5.01775391 -8 5 C-8 4.34 -8 3.68 -8 3 C-5.36 2.67 -2.72 2.34 0 2 C0 1.34 0 0.68 0 0 Z " fill="#535968" transform="translate(426,267)"/>
<path d="M0 0 C0.99 0 1.98 0 3 0 C3 0.66 3 1.32 3 2 C2.34 2 1.68 2 1 2 C1.23976563 2.61488281 1.47953125 3.22976562 1.7265625 3.86328125 C2.17128906 5.07564453 2.17128906 5.07564453 2.625 6.3125 C2.92664063 7.11300781 3.22828125 7.91351563 3.5390625 8.73828125 C3.69117188 9.48464844 3.84328125 10.23101562 4 11 C3.01 12.485 3.01 12.485 2 14 C0.02905192 9.07262981 -0.1799928 5.21979128 0 0 Z " fill="#1B2945" transform="translate(465,215)"/>
<path d="M0 0 C2.375 0.25 2.375 0.25 5 1 C6.3125 3.0625 6.3125 3.0625 7 5 C6.34 5 5.68 5 5 5 C5 6.65 5 8.3 5 10 C4.67 10 4.34 10 4 10 C4 8.02 4 6.04 4 4 C2.35 3.67 0.7 3.34 -1 3 C-0.67 2.01 -0.34 1.02 0 0 Z " fill="#373F54" transform="translate(188,210)"/>
<path d="M0 0 C0.99 0 1.98 0 3 0 C2.34 2.31 1.68 4.62 1 7 C-0.32 7 -1.64 7 -3 7 C-3 5.68 -3 4.36 -3 3 C-2.34 3 -1.68 3 -1 3 C-0.67 2.01 -0.34 1.02 0 0 Z " fill="#F35427" transform="translate(324,150)"/>
<path d="M0 0 C0.33 0.99 0.66 1.98 1 3 C1.99 3 2.98 3 4 3 C4.33 2.34 4.66 1.68 5 1 C6.98 1.66 8.96 2.32 11 3 C11 3.33 11 3.66 11 4 C1.58997722 5.33257403 1.58997722 5.33257403 -3 4 C-3 3.34 -3 2.68 -3 2 C-2.01 1.34 -1.02 0.68 0 0 Z " fill="#525969" transform="translate(376,267)"/>
<path d="M0 0 C0.66 0 1.32 0 2 0 C2 0.66 2 1.32 2 2 C2.66 2.33 3.32 2.66 4 3 C4 4.65 4 6.3 4 8 C2.125 7.6875 2.125 7.6875 0 7 C-0.66 6.01 -1.32 5.02 -2 4 C-1.34 2.68 -0.68 1.36 0 0 Z " fill="#2E3951" transform="translate(151,264)"/>
<path d="M0 0 C0.33 0 0.66 0 1 0 C1 4.29 1 8.58 1 13 C-0.32 12.67 -1.64 12.34 -3 12 C-2.125 8.125 -2.125 8.125 -1 7 C-0.63239269 4.67182036 -0.29758419 2.3381615 0 0 Z " fill="#07152E" transform="translate(351,254)"/>
<path d="M0 0 C2 2 2 2 2 5 C1.01 5 0.02 5 -1 5 C-1.33 5.66 -1.66 6.32 -2 7 C-2.66 7 -3.32 7 -4 7 C-4 5.35 -4 3.7 -4 2 C-2.68 1.34 -1.36 0.68 0 0 Z " fill="#132A4A" transform="translate(314,258)"/>
<path d="M0 0 C-0.99 0 -1.98 0 -3 0 C-3 0.66 -3 1.32 -3 2 C-0.03 2 2.94 2 6 2 C6 2.33 6 2.66 6 3 C1.71 3 -2.58 3 -7 3 C-7.33 2.01 -7.66 1.02 -8 0 C-4.94736336 -0.98120464 -3.05263664 -0.98120464 0 0 Z " fill="#E5BBBE" transform="translate(188,198)"/>
<path d="M0 0 C-0.33 2.31 -0.66 4.62 -1 7 C-2.32 7 -3.64 7 -5 7 C-5.1875 4.625 -5.1875 4.625 -5 2 C-2 0 -2 0 0 0 Z " fill="#E9603B" transform="translate(368,130)"/>
<path d="M0 0 C9.59453303 2.70615034 9.59453303 2.70615034 13 7 C11.35 7.33 9.7 7.66 8 8 C7.67 6.35 7.34 4.7 7 3 C6.01 3.33 5.02 3.66 4 4 C2.68 2.68 1.36 1.36 0 0 Z " fill="#3A4160" transform="translate(151,210)"/>
<path d="M0 0 C0.99 0.33 1.98 0.66 3 1 C1.375 6.75 1.375 6.75 -2 9 C-2.25 3.375 -2.25 3.375 0 0 Z " fill="#E01E19" transform="translate(269,183)"/>
<path d="M0 0 C0.103125 0.639375 0.20625 1.27875 0.3125 1.9375 C0.539375 2.618125 0.76625 3.29875 1 4 C1.99 4.33 2.98 4.66 4 5 C2.68 6.32 1.36 7.64 0 9 C-0.66 8.01 -1.32 7.02 -2 6 C-2.99 6 -3.98 6 -5 6 C-3.35 4.02 -1.7 2.04 0 0 Z " fill="#EA7655" transform="translate(362,133)"/>
<path d="M0 0 C3 1 3 1 4.75 3.4375 C5.36875 4.7059375 5.36875 4.7059375 6 6 C5.67 6.66 5.34 7.32 5 8 C4.67 7.67 4.34 7.34 4 7 C3.34 7.66 2.68 8.32 2 9 C0.50178941 5.62902617 0 3.79557881 0 0 Z " fill="#E07B72" transform="translate(273,122)"/>
<path d="M0 0 C1.98 0 3.96 0 6 0 C6 0.66 6 1.32 6 2 C2.5647952 4.29013653 1.014669 4.17842973 -3 4 C-3.33 3.34 -3.66 2.68 -4 2 C-2.68 2 -1.36 2 0 2 C0 1.34 0 0.68 0 0 Z " fill="#0B1127" transform="translate(207,210)"/>
<path d="M0 0 C0.66 0.33 1.32 0.66 2 1 C2 1.66 2 2.32 2 3 C2.99 2.67 3.98 2.34 5 2 C5.33 2.99 5.66 3.98 6 5 C4.35 5.66 2.7 6.32 1 7 C0.34 5.02 -0.32 3.04 -1 1 C-0.67 0.67 -0.34 0.34 0 0 Z " fill="#0D1831" transform="translate(297,244)"/>
<path d="M0 0 C0.99 0.33 1.98 0.66 3 1 C2.25 3.4375 2.25 3.4375 1 6 C-1.125 6.8125 -1.125 6.8125 -3 7 C-3.33 6.01 -3.66 5.02 -4 4 C-2.68 2.68 -1.36 1.36 0 0 Z " fill="#202C45" transform="translate(162,230)"/>
<path d="M0 0 C-0.33 1.65 -0.66 3.3 -1 5 C-2.9375 4.6875 -2.9375 4.6875 -5 4 C-5.33 3.01 -5.66 2.02 -6 1 C-4 0 -4 0 0 0 Z " fill="#292F39" transform="translate(497,219)"/>
<path d="M0 0 C1.32 0.33 2.64 0.66 4 1 C4 2.65 4 4.3 4 6 C2.68 6.33 1.36 6.66 0 7 C0 4.69 0 2.38 0 0 Z " fill="#DD4D39" transform="translate(283,147)"/>
<path d="M0 0 C1.98 0.99 3.96 1.98 6 3 C5.67 3.99 5.34 4.98 5 6 C2.69 6 0.38 6 -2 6 C-1.01 5.01 -0.02 4.02 1 3 C0.67 2.01 0.34 1.02 0 0 Z " fill="#EC8F85" transform="translate(274,266)"/>
<path d="M0 0 C0.33 0.66 0.66 1.32 1 2 C3.01669827 3.13350534 3.01669827 3.13350534 5 4 C4.01 4.99 3.02 5.98 2 7 C-0.46278801 5.768606 -1.42497687 4.21935077 -3 2 C-2.01 1.34 -1.02 0.68 0 0 Z " fill="#263655" transform="translate(310,215)"/>
<path d="M0 0 C0.66 0.99 1.32 1.98 2 3 C0.02 5.31 -1.96 7.62 -4 10 C-5 6 -5 6 -4.00390625 4.296875 C-2.66927083 2.86458333 -1.33463542 1.43229167 0 0 Z " fill="#E43F39" transform="translate(274,167)"/>
<path d="M0 0 C-0.66 0.66 -1.32 1.32 -2 2 C-1.34 3.32 -0.68 4.64 0 6 C-2.4375 5.25 -2.4375 5.25 -5 4 C-5.8125 1.875 -5.8125 1.875 -6 0 C-3.50907189 -1.24546405 -2.58919267 -0.7767578 0 0 Z " fill="#EF5E2F" transform="translate(341,167)"/>
<path d="M0 0 C0.99 0 1.98 0 3 0 C3 1.65 3 3.3 3 5 C1.35 5 -0.3 5 -2 5 C-2.33 4.01 -2.66 3.02 -3 2 C-2.01 2 -1.02 2 0 2 C0 1.34 0 0.68 0 0 Z " fill="#DF2119" transform="translate(268,158)"/>
<path d="M0 0 C0 0.66 0 1.32 0 2 C-3.54674003 3.18224668 -5.97522995 2.89329634 -9.6875 2.5625 C-10.86699219 2.46066406 -12.04648437 2.35882813 -13.26171875 2.25390625 C-14.61716797 2.12822266 -14.61716797 2.12822266 -16 2 C-16 1.67 -16 1.34 -16 1 C-13.89594609 0.83191581 -11.79175242 0.66558052 -9.6875 0.5 C-8.51574219 0.4071875 -7.34398437 0.314375 -6.13671875 0.21875 C-4.094806 0.07635011 -2.0468721 0 0 0 Z " fill="#6C717E" transform="translate(483,269)"/>
<path d="M0 0 C3.63 0 7.26 0 11 0 C11 0.33 11 0.66 11 1 C9.93458984 1.18175781 9.93458984 1.18175781 8.84765625 1.3671875 C7.92855469 1.53476563 7.00945312 1.70234375 6.0625 1.875 C5.14597656 2.03742188 4.22945313 2.19984375 3.28515625 2.3671875 C2.53105469 2.57601562 1.77695312 2.78484375 1 3 C0.67 3.66 0.34 4.32 0 5 C0 3.35 0 1.7 0 0 Z " fill="#34435E" transform="translate(389,240)"/>
<path d="M0 0 C0.66 0 1.32 0 2 0 C2 0.66 2 1.32 2 2 C2.66 2.33 3.32 2.66 4 3 C3.67 4.65 3.34 6.3 3 8 C1.35 6.68 -0.3 5.36 -2 4 C-1.34 2.68 -0.68 1.36 0 0 Z " fill="#071432" transform="translate(313,213)"/>
<path d="M0 0 C1.65 0 3.3 0 5 0 C4.34 0.66 3.68 1.32 3 2 C2.53993654 4.20250992 2.53993654 4.20250992 2.375 6.625 C2.30023438 7.44226563 2.22546875 8.25953125 2.1484375 9.1015625 C2.09945312 9.72804687 2.05046875 10.35453125 2 11 C1.67 11 1.34 11 1 11 C0.63743142 9.5437328 0.28520207 8.08488815 -0.0625 6.625 C-0.35833984 5.40683594 -0.35833984 5.40683594 -0.66015625 4.1640625 C-1 2 -1 2 0 0 Z " fill="#454F61" transform="translate(135,213)"/>
<path d="M0 0 C2.475 0.495 2.475 0.495 5 1 C5 2.32 5 3.64 5 5 C3.35 5 1.7 5 0 5 C0 3.35 0 1.7 0 0 Z " fill="#D01205" transform="translate(263,155)"/>
<path d="M0 0 C0.33 1.32 0.66 2.64 1 4 C2.32 4 3.64 4 5 4 C5 3.34 5 2.68 5 2 C5.66 2 6.32 2 7 2 C6.34 3.65 5.68 5.3 5 7 C3.02 6.34 1.04 5.68 -1 5 C-0.67 3.35 -0.34 1.7 0 0 Z " fill="#EA8E79" transform="translate(320,153)"/>
<path d="M0 0 C2 1.375 2 1.375 4 3 C4 3.66 4 4.32 4 5 C2.02 5.66 0.04 6.32 -2 7 C-2.99 5.35 -3.98 3.7 -5 2 C-4.34 2 -3.68 2 -3 2 C-2.67 2.66 -2.34 3.32 -2 4 C-1.34 4 -0.68 4 0 4 C0 2.68 0 1.36 0 0 Z " fill="#D05150" transform="translate(254,140)"/>
<path d="M0 0 C-1.98 0.99 -1.98 0.99 -4 2 C-4 2.66 -4 3.32 -4 4 C-2.68 4.33 -1.36 4.66 0 5 C-2.875 5.125 -2.875 5.125 -6 5 C-6.66 4.34 -7.32 3.68 -8 3 C-7.34 3 -6.68 3 -6 3 C-6 2.01 -6 1.02 -6 0 C-3 -1 -3 -1 0 0 Z " fill="#4E576D" transform="translate(329,267)"/>
<path d="M0 0 C0.66 0 1.32 0 2 0 C2.33 1.32 2.66 2.64 3 4 C4.65 4.33 6.3 4.66 8 5 C7.67 5.66 7.34 6.32 7 7 C3.62496331 5.8141763 1.35277269 4.72426311 -1 2 C-0.67 1.34 -0.34 0.68 0 0 Z " fill="#374054" transform="translate(233,262)"/>
<path d="M0 0 C1.98 0.495 1.98 0.495 4 1 C3.67 2.32 3.34 3.64 3 5 C1.68 4.67 0.36 4.34 -1 4 C-0.67 2.68 -0.34 1.36 0 0 Z " fill="#1A2046" transform="translate(447,219)"/>
<path d="M0 0 C-1.65 1.65 -3.3 3.3 -5 5 C-5.66 4.67 -6.32 4.34 -7 4 C-7 3.01 -7 2.02 -7 1 C-4.53721199 -0.231394 -2.7204945 -0.07159196 0 0 Z " fill="#E1A390" transform="translate(388,160)"/>
<path d="M0 0 C0.99 0.33 1.98 0.66 3 1 C0.525 4.465 0.525 4.465 -2 8 C-2.33 6.68 -2.66 5.36 -3 4 C-1.5625 1.75 -1.5625 1.75 0 0 Z " fill="#EE7F4F" transform="translate(347,157)"/>
<path d="M0 0 C0.33 0.66 0.66 1.32 1 2 C-0.125 4.5625 -0.125 4.5625 -2 7 C-4.6875 7.8125 -4.6875 7.8125 -7 8 C-6.02133662 6.85373678 -5.04205413 5.70800212 -4.0625 4.5625 C-3.51722656 3.92441406 -2.97195313 3.28632813 -2.41015625 2.62890625 C-1.63204305 1.73008851 -0.84063472 0.84063472 0 0 Z " fill="#E76942" transform="translate(347,149)"/>
<path d="M0 0 C1.98 0.495 1.98 0.495 4 1 C4.33 2.32 4.66 3.64 5 5 C3.68 5 2.36 5 1 5 C1 4.34 1 3.68 1 3 C0.34 3 -0.32 3 -1 3 C-0.67 2.01 -0.34 1.02 0 0 Z " fill="#C4110E" transform="translate(250,139)"/>
<path d="M0 0 C0 0.33 0 0.66 0 1 C-1.65 1 -3.3 1 -5 1 C-4.67 2.65 -4.34 4.3 -4 6 C-4.33 5.34 -4.66 4.68 -5 4 C-7.02463255 3.34786708 -7.02463255 3.34786708 -9 3 C-9 2.34 -9 1.68 -9 1 C-6.04335481 -0.4783226 -3.25770263 -0.06032783 0 0 Z " fill="#555A68" transform="translate(418,210)"/>
<path d="M0 0 C-0.33 0.99 -0.66 1.98 -1 3 C-3.0625 3.6875 -3.0625 3.6875 -5 4 C-5.33 3.34 -5.66 2.68 -6 2 C-3 0 -3 0 0 0 Z M-7 4 C-6.34 4.33 -5.68 4.66 -5 5 C-5.99 5.66 -6.98 6.32 -8 7 C-7.67 6.01 -7.34 5.02 -7 4 Z " fill="#DE1C14" transform="translate(280,172)"/>
<path d="M0 0 C-0.3125 1.875 -0.3125 1.875 -1 4 C-1.99 4.66 -2.98 5.32 -4 6 C-4.99 5.34 -5.98 4.68 -7 4 C-6.01 3.67 -5.02 3.34 -4 3 C-4 2.34 -4 1.68 -4 1 C-2 0 -2 0 0 0 Z " fill="#E49E87" transform="translate(378,120)"/>
<path d="M0 0 C-0.33 0.66 -0.66 1.32 -1 2 C-4.28414305 2.95067299 -5.69693408 3.10102197 -9 2 C-9 1.34 -9 0.68 -9 0 C-5.52176885 -1.15941038 -3.54104422 -0.70820884 0 0 Z " fill="#08172D" transform="translate(486,213)"/>
<path d="M0 0 C2.64 0 5.28 0 8 0 C8 0.66 8 1.32 8 2 C5.69 2.33 3.38 2.66 1 3 C0.67 2.01 0.34 1.02 0 0 Z " fill="#272A3A" transform="translate(199,210)"/>
<path d="M0 0 C2.31 0 4.62 0 7 0 C4.31158141 2.25245881 2.35358125 3.88213958 -1 5 C-0.67 3.35 -0.34 1.7 0 0 Z " fill="#EC8563" transform="translate(362,171)"/>
<path d="M0 0 C2.31 0 4.62 0 7 0 C7.33 0.66 7.66 1.32 8 2 C6.35 2.66 4.7 3.32 3 4 C1.97895449 3.02149805 0.9793879 2.02019573 0 1 C0 0.67 0 0.34 0 0 Z " fill="#C94C4A" transform="translate(233,165)"/>
<path d="M0 0 C1.98 0.495 1.98 0.495 4 1 C4 1.99 4 2.98 4 4 C3.01 4 2.02 4 1 4 C1 4.66 1 5.32 1 6 C0.34 6 -0.32 6 -1 6 C-0.67 4.02 -0.34 2.04 0 0 Z " fill="#F24E1D" transform="translate(353,144)"/>
<path d="M0 0 C0.99 1.32 1.98 2.64 3 4 C1.35 4.66 -0.3 5.32 -2 6 C-2 4.35 -2 2.7 -2 1 C-1.34 0.67 -0.68 0.34 0 0 Z " fill="#050D28" transform="translate(312,254)"/>
<path d="M0 0 C1.32 0.66 2.64 1.32 4 2 C3.01 2.33 2.02 2.66 1 3 C1 3.66 1 4.32 1 5 C-0.32 4.34 -1.64 3.68 -3 3 C-2.01 2.01 -1.02 1.02 0 0 Z " fill="#D7524A" transform="translate(244,168)"/>
<path d="M0 0 C1.5625 1.125 1.5625 1.125 3 3 C2.6875 6.1875 2.6875 6.1875 2 9 C1.01 9 0.02 9 -1 9 C-0.7525 7.329375 -0.7525 7.329375 -0.5 5.625 C0.0455458 2.27967967 0.0455458 2.27967967 0 0 Z " fill="#E96559" transform="translate(270,156)"/>
<path d="M0 0 C3 1 3 1 4 3 C4.66 3 5.32 3 6 3 C6 3.66 6 4.32 6 5 C4.02 5 2.04 5 0 5 C0 3.35 0 1.7 0 0 Z " fill="#EB7560" transform="translate(301,151)"/>
<path d="M0 0 C0 1.65 0 3.3 0 5 C-1.32 5.33 -2.64 5.66 -4 6 C-3.625 3.5625 -3.625 3.5625 -3 1 C-1 0 -1 0 0 0 Z " fill="#EA562E" transform="translate(333,132)"/>
<path d="M0 0 C0.99 0.33 1.98 0.66 3 1 C4.1875 4.0625 4.1875 4.0625 5 7 C4.34 7 3.68 7 3 7 C3 6.34 3 5.68 3 5 C2.34 5 1.68 5 1 5 C0.67 3.35 0.34 1.7 0 0 Z " fill="#2E3748" transform="translate(227,253)"/>
<path d="M0 0 C0.66 0 1.32 0 2 0 C2.625 1.8125 2.625 1.8125 3 4 C2.01 5.485 2.01 5.485 1 7 C0.34 7 -0.32 7 -1 7 C-0.67 4.69 -0.34 2.38 0 0 Z " fill="#252D41" transform="translate(298,229)"/>
<path d="M0 0 C3.3 0 6.6 0 10 0 C9.01 0.33 8.02 0.66 7 1 C7 1.66 7 2.32 7 3 C4.03824877 2.38722388 2.61941217 1.74627478 0 0 Z " fill="#E7635E" transform="translate(246,192)"/>
<path d="M0 0 C0.33 0 0.66 0 1 0 C1 2.31 1 4.62 1 7 C-1.475 6.01 -1.475 6.01 -4 5 C-2.68 4.34 -1.36 3.68 0 3 C0 2.01 0 1.02 0 0 Z " fill="#E97A78" transform="translate(253,171)"/>
<path d="M0 0 C1.98 0.66 3.96 1.32 6 2 C5.67 2.66 5.34 3.32 5 4 C3.35 4 1.7 4 0 4 C0 2.68 0 1.36 0 0 Z " fill="#FE441F" transform="translate(328,166)"/>
<path d="M0 0 C2.475 0.99 2.475 0.99 5 2 C5 3.65 5 5.3 5 7 C2.47411298 4.63707344 1.11179163 3.33537489 0 0 Z " fill="#D4403D" transform="translate(258,153)"/>
<path d="M0 0 C0.66 0 1.32 0 2 0 C1.45276317 3.37462715 0.9451 5.08235 -1 8 C-1.66 7.67 -2.32 7.34 -3 7 C-2.01 4.69 -1.02 2.38 0 0 Z " fill="#E8876A" transform="translate(324,145)"/>
</svg>
